<?xml version="1.0" encoding="UTF-8"?>
<svg version="1.1" xmlns="http://www.w3.org/2000/svg" width="500" height="500">
<path d="M0 0 C1.32 0 2.64 0 4 0 C4 0.66 4 1.32 4 2 C4.66 2 5.32 2 6 2 C7.68493737 4.17699873 9.26194625 6.35511719 10.8125 8.625 C13.36080423 12.31830628 15.8913936 15.9348114 18.82421875 19.3359375 C21 22 21 22 21 24 C21.66 24 22.32 24 23 24 C27.02986541 28.9509775 27.02986541 28.9509775 26.9375 32.1953125 C25.56339695 36.30617078 23.22660781 39.61154113 20.8125 43.1875 C19.80357517 44.7141092 18.79575487 46.24144898 17.7890625 47.76953125 C17.30469727 48.50123535 16.82033203 49.23293945 16.32128906 49.98681641 C12.70403071 55.49825623 9.42042092 61.18642034 6.2734375 66.9765625 C5.4844104 68.42796631 5.4844104 68.42796631 4.67944336 69.90869141 C4.12522705 70.92882324 3.57101074 71.94895508 3 73 C2.44513916 74.01626465 1.89027832 75.0325293 1.31860352 76.07958984 C-15.67314032 107.12707111 -15.67314032 107.12707111 -29.65625 139.59375 C-30.81473785 142.530382 -32.06793338 145.3717635 -33.38671875 148.23828125 C-39.58714514 161.7654416 -44.70933101 175.77388613 -49.4375 189.875 C-49.7672583 190.85428467 -50.0970166 191.83356934 -50.43676758 192.8425293 C-52.30578903 198.51796653 -53.80378758 204.14517136 -55 210 C-49.85666478 206.88692868 -45.64818166 203.03539016 -41.26953125 198.92578125 C-39 197 -39 197 -36 196 C-36 195.34 -36 194.68 -36 194 C-35.34 194 -34.68 194 -34 194 C-34 193.34 -34 192.68 -34 192 C-33.34 192 -32.68 192 -32 192 C-32 191.34 -32 190.68 -32 190 C-31.34 190 -30.68 190 -30 190 C-29.773125 189.484375 -29.54625 188.96875 -29.3125 188.4375 C-27.51782382 185.10452995 -25.50034985 181.85296329 -23 179 C-22.34 179 -21.68 179 -21 179 C-21 178.34 -21 177.68 -21 177 C-20.34 177 -19.68 177 -19 177 C-18.8040625 176.34515625 -18.608125 175.6903125 -18.40625 175.015625 C-16.40874042 170.73207668 -13.47430817 167.39875625 -10.5 163.75 C-4.21863662 155.86327407 1.03177976 147.75392014 5.90917969 138.94482422 C6.91949328 137.14353549 7.97738299 135.36915597 9.0390625 133.59765625 C25.16058806 106.58928375 34.32991622 78.2242739 37 47 C41.28721426 48.87071352 42.7982064 51.51308769 44.875 55.5625 C45.21942139 56.22217773 45.56384277 56.88185547 45.91870117 57.56152344 C49.7319861 65.09799482 52.45970132 72.9609478 55 81 C55.31839844 81.97582031 55.63679687 82.95164062 55.96484375 83.95703125 C62.90513565 106.98775113 61.90356482 135.40222212 58 159 C57.89538452 159.63377563 57.79076904 160.26755127 57.6829834 160.92053223 C54.59074156 179.50937834 51.09117059 197.64623364 44.85400391 215.46875 C43.29134889 220.10042729 41.96198043 224.79917518 40.625 229.5 C40.37419678 230.36753906 40.12339355 231.23507812 39.86499023 232.12890625 C38.6497872 236.40222211 37.61572971 240.58965694 37 245 C45.28951808 238.20295481 54.13817517 229.72364966 59 220 C59.66 220 60.32 220 61 220 C61.99 217.03 61.99 217.03 63 214 C63.66 214 64.32 214 65 214 C65.12745605 213.410979 65.25491211 212.82195801 65.38623047 212.21508789 C66.15832008 209.42862446 67.52734434 207.08229765 68.93286133 204.56982422 C79.69661129 185.31719424 85.25023935 164.61793832 89 143 C93.13334524 146.32932466 93.03427943 150.37992191 93.65234375 155.40234375 C96.77685093 190.93861851 91.56807273 228.40974419 68.0859375 256.5703125 C67.39757812 257.37210937 66.70921875 258.17390625 66 259 C65.31164062 259.82242187 64.62328125 260.64484375 63.9140625 261.4921875 C48.86165083 278.93559597 48.86165083 278.93559597 41 280 C41 280.66 41 281.32 41 282 C17.17169364 295.6210035 -8.69823859 301.46035228 -36 296 C-37.68499362 295.38111494 -39.36041864 294.73074974 -41 294 C-40.38722388 291.03824877 -39.74627478 289.61941217 -38 287 C-37.34 287 -36.68 287 -36 287 C-35.773125 286.484375 -35.54625 285.96875 -35.3125 285.4375 C-33.51782382 282.10452995 -31.50034985 278.85296329 -29 276 C-28.34 276 -27.68 276 -27 276 C-26.7525 275.29875 -26.505 274.5975 -26.25 273.875 C-24.82819762 270.60485452 -23.12753712 267.858878 -21 265 C-20.34 265 -19.68 265 -19 265 C-18.76410156 264.31550781 -18.52820313 263.63101562 -18.28515625 262.92578125 C-16.72911897 259.38331339 -14.63616999 256.34894811 -12.4375 253.1875 C-7.86241102 246.48206447 -3.81399325 239.57380682 0.08984375 232.4609375 C1.66907298 229.59959373 3.29611293 226.78817884 5 224 C1.07982773 227.36299043 -2.78773204 230.7170414 -6.375 234.4375 C-9 237 -9 237 -11 237 C-11 237.66 -11 238.32 -11 239 C-11.66 239 -12.32 239 -13 239 C-13 239.66 -13 240.32 -13 241 C-14.4609375 242.5078125 -14.4609375 242.5078125 -16.375 244.125 C-17.00148438 244.66382813 -17.62796875 245.20265625 -18.2734375 245.7578125 C-20 247 -20 247 -22 247 C-22 247.66 -22 248.32 -22 249 C-23.32 249.33 -24.64 249.66 -26 250 C-26 250.66 -26 251.32 -26 252 C-28.49097054 253.66776118 -30.96812788 255.19531212 -33.5625 256.6875 C-34.70875854 257.35362305 -34.70875854 257.35362305 -35.87817383 258.03320312 C-63.3419205 273.7575666 -63.3419205 273.7575666 -74 271 C-77.01901888 268.41809776 -78.93846139 265.36859659 -81 262 C-81.65742188 261.08347656 -81.65742188 261.08347656 -82.328125 260.1484375 C-99.21557408 235.88608978 -99.20759417 202.35147267 -94.375 174.4375 C-89.05933364 145.74449579 -78.03304898 119.78165146 -64.96728516 93.91845703 C-63.30257906 90.61677594 -61.65215606 87.30797543 -60 84 C-59.34 84 -58.68 84 -58 84 C-57.84289551 82.91936279 -57.84289551 82.91936279 -57.68261719 81.81689453 C-56.92865603 78.70559131 -55.78099207 76.63427095 -54.078125 73.9296875 C-53.470896 72.95966797 -52.86366699 71.98964844 -52.23803711 70.99023438 C-51.25395874 69.44819336 -51.25395874 69.44819336 -50.25 67.875 C-49.57912354 66.81345703 -48.90824707 65.75191406 -48.21704102 64.65820312 C-42.04428026 54.94932085 -35.67768727 45.36969258 -29 36 C-28.46133301 35.23945313 -27.92266602 34.47890625 -27.36767578 33.6953125 C-26.83513184 32.96054688 -26.30258789 32.22578125 -25.75390625 31.46875 C-25.27381104 30.80294922 -24.79371582 30.13714844 -24.29907227 29.45117188 C-23.87037842 28.97228516 -23.44168457 28.49339844 -23 28 C-22.34 28 -21.68 28 -21 28 C-20.7525 27.2678125 -20.505 26.535625 -20.25 25.78125 C-18.87422649 22.72015394 -17.31681914 20.91611139 -15 18.5 C-10.75314506 13.95812929 -7.02102054 9.19648816 -3.45117188 4.11523438 C-2.26171875 2.4921875 -2.26171875 2.4921875 0 0 Z " fill="#0393FA" transform="translate(280,97)"/>
<path d="M0 0 C4.8763934 0.43052843 6.96986995 2.48592497 10.3125 5.9375 C11.19550781 6.83339844 12.07851563 7.72929688 12.98828125 8.65234375 C15 11 15 11 15 13 C15.66 13 16.32 13 17 13 C18.85892472 15.02172864 20.55835413 17.03343995 22.25 19.1875 C22.7346875 19.76564453 23.219375 20.34378906 23.71875 20.93945312 C25.078125 22.66796875 25.078125 22.66796875 27 26 C26.30559261 29.8247518 24.44415114 31.87071828 21.625 34.4375 C19.29779071 36.64375246 17.38786476 38.71691639 15.6875 41.4375 C15.130625 42.283125 14.57375 43.12875 14 44 C13.34 44 12.68 44 12 44 C11.76925781 44.52980469 11.53851563 45.05960938 11.30078125 45.60546875 C9.58536965 48.76326848 7.40499765 51.49963832 5.1875 54.3125 C2.3646281 57.92259676 -0.4156743 61.52525993 -3 65.3125 C-3.66 66.199375 -4.32 67.08625 -5 68 C-5.66 68 -6.32 68 -7 68 C-7.22816406 68.680625 -7.45632812 69.36125 -7.69140625 70.0625 C-9.33571828 73.75361237 -11.54136284 76.7636589 -13.9375 80 C-14.82341648 81.20701285 -15.70756848 82.41532302 -16.58984375 83.625 C-17.00733887 84.19605469 -17.42483398 84.76710938 -17.85498047 85.35546875 C-18.88138765 86.82964333 -19.7950681 88.38081111 -20.69140625 89.9375 C-21.12324219 90.618125 -21.55507812 91.29875 -22 92 C-22.66 92 -23.32 92 -24 92 C-24.309375 93.2065625 -24.309375 93.2065625 -24.625 94.4375 C-26.08381447 98.21715567 -27.94366561 101.07448225 -30.23046875 104.390625 C-37.57039781 115.21418485 -45.2702632 126.75832829 -50 139 C-50.66 139 -51.32 139 -52 139 C-52.07992187 139.64582031 -52.15984375 140.29164063 -52.2421875 140.95703125 C-53.29143865 145.17026137 -55.20409098 148.8083255 -57.125 152.6875 C-66.08739978 171.25310846 -72.72076005 190.45893433 -77.3125 210.5625 C-77.47194092 211.25150391 -77.63138184 211.94050781 -77.7956543 212.65039062 C-81.56423891 230.02786847 -81.48052813 249.59735934 -78 267 C-77.79375 268.093125 -77.5875 269.18625 -77.375 270.3125 C-74.25162803 285.36147406 -67.68615443 299.10175244 -57.734375 310.80859375 C-56.14729725 312.81388793 -55.03856987 314.67381544 -54 317 C-53.34 317 -52.68 317 -52 317 C-52 317.66 -52 318.32 -52 319 C-51.34 319 -50.68 319 -50 319 C-50 319.66 -50 320.32 -50 321 C-49.47792969 321.23332031 -48.95585937 321.46664063 -48.41796875 321.70703125 C-45.85552803 323.07725399 -43.54661658 324.69579542 -41.18017578 326.37646484 C-32.61088362 332.39177189 -23.89681922 336.62896067 -14 340 C-13.36497559 340.22445801 -12.72995117 340.44891602 -12.07568359 340.68017578 C14.0241024 349.52951774 44.85704614 344.76057088 69.1875 332.99609375 C78.08556201 328.55837092 85.56947964 323.64261852 93 317 C93.98097656 316.21496094 94.96195313 315.42992187 95.97265625 314.62109375 C116.61381658 297.44475827 129.39035593 265.32168967 131.8125 239.25 C131.8928426 237.83423315 131.96423502 236.41759358 132 235 C132.99 234.67 133.98 234.34 135 234 C135.07553459 238.54911885 135.1292363 243.09785367 135.16479492 247.64746094 C135.1796558 249.18723934 135.19995039 250.72697723 135.22631836 252.26660156 C135.40894033 263.2239197 134.45601569 273.31682158 132 284 C131.80639893 284.85335938 131.61279785 285.70671875 131.41333008 286.5859375 C126.72910733 305.84305277 116.61084391 324.5584473 103 339 C102.34 339 101.68 339 101 339 C101 339.66 101 340.32 101 341 C99.625 342.625 99.625 342.625 98 344 C97.34 344 96.68 344 96 344 C96 344.66 96 345.32 96 346 C94.62988281 347.2175293 94.62988281 347.2175293 92.703125 348.57421875 C91.99808838 349.07348877 91.29305176 349.57275879 90.56665039 350.0871582 C89.80215576 350.615271 89.03766113 351.14338379 88.25 351.6875 C87.46939209 352.22914795 86.68878418 352.7707959 85.88452148 353.32885742 C67.30728355 366.1068012 49.00054912 372.58915479 27 377 C25.71488525 377.26695679 25.71488525 377.26695679 24.40380859 377.53930664 C15.16372593 379.31018172 5.37948463 379.26625634 -4 379 C-5.02996094 378.97164063 -6.05992187 378.94328125 -7.12109375 378.9140625 C-36.28057316 377.47154408 -62.22873513 367.59988569 -86 351 C-86.804375 350.44699219 -87.60875 349.89398438 -88.4375 349.32421875 C-88.953125 348.88722656 -89.46875 348.45023437 -90 348 C-90 347.34 -90 346.68 -90 346 C-90.55429688 345.76667969 -91.10859375 345.53335937 -91.6796875 345.29296875 C-108.82126062 335.74101471 -120.57724008 310.78186117 -125.8671875 293.03515625 C-126.24734325 291.6908231 -126.6249061 290.34575428 -127 289 C-127.29632324 287.99428955 -127.29632324 287.99428955 -127.59863281 286.96826172 C-134.58206223 262.42339318 -132.66085075 233.57882228 -127 209 C-126.84515137 208.30293945 -126.69030273 207.60587891 -126.53076172 206.88769531 C-125.54114264 202.52811094 -124.32054378 198.26975823 -123 194 C-122.77505859 193.2584668 -122.55011719 192.51693359 -122.31835938 191.75292969 C-114.64083853 166.68450741 -104.08796077 142.43049382 -90.2890625 120.11328125 C-88.97716917 117.96257127 -87.76439486 115.77631279 -86.5625 113.5625 C-81.12113875 103.69572786 -74.67206456 94.39196807 -68.38085938 85.05273438 C-67.42118751 83.62612174 -66.46436011 82.19759319 -65.50976562 80.76757812 C-64.01340586 78.52782837 -62.50782162 76.29454502 -61 74.0625 C-60.53110352 73.35778564 -60.06220703 72.65307129 -59.57910156 71.92700195 C-58.43756903 70.24846266 -57.22508885 68.61856356 -56 67 C-55.34 67 -54.68 67 -54 67 C-53.79503906 66.33097656 -53.59007812 65.66195312 -53.37890625 64.97265625 C-51.49844366 60.91874115 -48.80422099 57.83931512 -45.9375 54.4375 C-40.96872973 48.45592079 -36.23671494 42.38220711 -31.70703125 36.0625 C-31.14371094 35.381875 -30.58039063 34.70125 -30 34 C-29.34 34 -28.68 34 -28 34 C-27.79503906 33.32324219 -27.59007812 32.64648438 -27.37890625 31.94921875 C-25.51647349 27.96582857 -22.85556046 25.07011056 -19.9375 21.8125 C-19.35621338 21.15483643 -18.77492676 20.49717285 -18.17602539 19.81958008 C-17.00435278 18.49597309 -15.82982709 17.17488573 -14.65234375 15.85644531 C-13.18191308 14.20438343 -11.72791974 12.54003597 -10.28125 10.8671875 C-9.5078125 9.98289062 -8.734375 9.09859375 -7.9375 8.1875 C-6.93009766 7.03314453 -6.93009766 7.03314453 -5.90234375 5.85546875 C-4.02145497 4.0209263 -2.40707495 3.01322309 0 2 C0 1.34 0 0.68 0 0 Z " fill="#0393FA" transform="translate(248,61)"/>
<path d="M0 0 C0.66 0 1.32 0 2 0 C2.07553459 4.54911885 2.1292363 9.09785367 2.16479492 13.64746094 C2.1796558 15.18723934 2.19995039 16.72697723 2.22631836 18.26660156 C2.46013212 32.29542691 0.7426271 45.35267443 -3.375 58.8125 C-3.58342529 59.51044678 -3.79185059 60.20839355 -4.0065918 60.92749023 C-5.83434367 66.85454067 -8.19163891 72.46693113 -11 78 C-11.33 78 -11.66 78 -12 78 C-12.19622241 73.78121808 -11.80230168 70.82989106 -10 67 C-9.34 67 -8.68 67 -8 67 C-7.67 63.7 -7.34 60.4 -7 57 C-6.34 57 -5.68 57 -5 57 C-4.34 52.71 -3.68 48.42 -3 44 C-9.00955665 46.26432103 -9.00955665 46.26432103 -12.5 51.25 C-12.7475 52.61125 -12.7475 52.61125 -13 54 C-13.66 54 -14.32 54 -15 54 C-15 54.66 -15 55.32 -15 56 C-15.66 56 -16.32 56 -17 56 C-17.495 58.475 -17.495 58.475 -18 61 C-18.66 61 -19.32 61 -20 61 C-18.53043152 56.11406356 -16.46871223 51.81381249 -14.125 47.3125 C-7.09176357 33.46049354 -1.99080841 18.56664115 -1.17578125 2.94140625 C-1 1 -1 1 0 0 Z " fill="#0791F5" transform="translate(381,295)"/>
<path d="M0 0 C2.97 0.495 2.97 0.495 6 1 C0.09136754 8.30804541 -6.62536641 15.53729475 -15 20 C-15.66 20 -16.32 20 -17 20 C-17 20.66 -17 21.32 -17 22 C-40.82830636 35.6210035 -66.69823859 41.46035228 -94 36 C-95.68499362 35.38111494 -97.36041864 34.73074974 -99 34 C-98.38722388 31.03824877 -97.74627478 29.61941217 -96 27 C-95.34 27 -94.68 27 -94 27 C-93.773125 26.443125 -93.54625 25.88625 -93.3125 25.3125 C-91.64103234 22.36753316 -89.44723648 20.31843456 -87 18 C-87 19.32 -87 20.64 -87 22 C-87.66 22 -88.32 22 -89 22 C-89.061875 22.7425 -89.12375 23.485 -89.1875 24.25 C-90.2452497 27.83007591 -92.06862656 28.80146992 -95 31 C-95.495 32.485 -95.495 32.485 -96 34 C-94.205625 33.9690625 -94.205625 33.9690625 -92.375 33.9375 C-89.88175168 33.89451296 -87.68730914 34.05541357 -85.22265625 34.4921875 C-71.11718688 36.71486752 -55.17715842 35.31709901 -42 30 C-39.32589317 29.50874294 -36.71256139 29.24219298 -34 29 C-34 28.01 -34 27.02 -34 26 C-31.4312405 24.56149468 -29.18879696 23.78001273 -26.3125 23 C-25.219375 22.67 -24.12625 22.34 -23 22 C-22.67 21.34 -22.34 20.68 -22 20 C-20.34561387 19.30341637 -18.67745682 18.63903117 -17 18 C-16.01 17.34 -15.02 16.68 -14 16 C-11.8125 15.375 -11.8125 15.375 -10 15 C-10.495 13.02 -10.495 13.02 -11 11 C-9.35 11 -7.7 11 -6 11 C-6 9.02 -6 7.04 -6 5 C-3.69 5 -1.38 5 1 5 C0.505 2.525 0.505 2.525 0 0 Z " fill="#49A6DF" transform="translate(338,357)"/>
<path d="M0 0 C5.36951413 4.96659776 4.83116828 12.84876846 5.11376953 19.79736328 C5.54954445 36.74325201 4.93917624 53.46995982 1 70 C0.67 70 0.34 70 0 70 C-0.02753831 68.4792733 -0.04663375 66.95839326 -0.0625 65.4375 C-0.07410156 64.59058594 -0.08570313 63.74367188 -0.09765625 62.87109375 C0 60 0 60 0.5 56.78710938 C1.00223732 52.98305405 1.11356913 49.37016099 1.09765625 45.53515625 C1.09553383 44.51789711 1.09553383 44.51789711 1.09336853 43.48008728 C1.08782745 41.34084422 1.07528653 39.20171075 1.0625 37.0625 C1.05747736 35.60091298 1.0529158 34.13932431 1.04882812 32.67773438 C1.03787745 29.11845474 1.02065445 25.55923809 1 22 C0.01 22.33 -0.98 22.66 -2 23 C-2 24.98 -2 26.96 -2 29 C-2.66 29 -3.32 29 -4 29 C-4.495 31.475 -4.495 31.475 -5 34 C-5.66 34 -6.32 34 -7 34 C-6.72414063 32.78441406 -6.44828125 31.56882812 -6.1640625 30.31640625 C-4.80685551 24.20897479 -3.59307687 18.07391631 -2.375 11.9375 C-2.14554687 10.78572266 -1.91609375 9.63394531 -1.6796875 8.44726562 C-1.11890796 5.63168502 -0.55903276 2.81592786 0 0 Z " fill="#55AFE2" transform="translate(369,240)"/>
<path d="M0 0 C0.33 0 0.66 0 1 0 C0.99333817 0.57247971 0.98667633 1.14495941 0.97981262 1.73478699 C0.91285678 7.75436725 0.86795257 13.77383981 0.83520508 19.79370117 C0.82022378 22.03300278 0.79983167 24.27227558 0.77368164 26.51147461 C0.63752929 38.4795332 0.57657928 49.45516847 4 61 C4.48163681 63.43363308 4.83642057 65.85494396 5.1875 68.3125 C5.34605469 69.40175781 5.50460938 70.49101562 5.66796875 71.61328125 C5.77753906 72.40089844 5.88710937 73.18851562 6 74 C6.66 74 7.32 74 8 74 C8 77.63 8 81.26 8 85 C4.89680521 80.34520782 3.54797751 75.3511021 2 70 C1.81083008 69.36046387 1.62166016 68.72092773 1.42675781 68.06201172 C-1.98099076 56.00760739 -2.37690462 44.0621551 -2.375 31.625 C-2.37681274 30.85808838 -2.37862549 30.09117676 -2.38049316 29.30102539 C-2.37783357 19.35096787 -1.70625303 9.82322657 0 0 Z " fill="#1D91E3" transform="translate(119,280)"/>
<path d="M0 0 C4.54789368 1.93194856 6.02678148 5.05997894 8.1875 9.3125 C8.54263672 9.97701172 8.89777344 10.64152344 9.26367188 11.32617188 C11.10620656 14.86090161 12.4811745 17.99652565 13 22 C11.02 22.99 9.04 23.98 7 25 C6.18233605 22.54700814 5.97372184 21.12810602 6.5 18.5625 C7.0623328 15.6805444 6.85436555 13.79610544 6 11 C5.34 10.67 4.68 10.34 4 10 C2.875 7.9375 2.875 7.9375 2 6 C1.95512451 6.55349121 1.91024902 7.10698242 1.86401367 7.67724609 C0.2647313 26.81685207 0.2647313 26.81685207 -3 36 C-3.71464074 38.65688522 -4.35598011 41.32484045 -5 44 C-5.66 43.67 -6.32 43.34 -7 43 C-6.5978125 41.205625 -6.5978125 41.205625 -6.1875 39.375 C-6.00574219 38.54355469 -5.82398438 37.71210938 -5.63671875 36.85546875 C-5.19967593 34.89547915 -4.74286286 32.93982495 -4.26953125 30.98828125 C-1.87927325 20.73565174 -0.89566668 10.47403158 0 0 Z " fill="#4CA5DF" transform="translate(317,144)"/>
<path d="M0 0 C0.99 0.33 1.98 0.66 3 1 C2.00574135 6.14487092 -1.05814129 9.96942026 -3.9375 14.25 C-4.48857422 15.09046875 -5.03964844 15.9309375 -5.60742188 16.796875 C-6.13787109 17.5909375 -6.66832031 18.385 -7.21484375 19.203125 C-7.70073975 19.93176758 -8.18663574 20.66041016 -8.68725586 21.41113281 C-9.33706421 22.19762207 -9.33706421 22.19762207 -10 23 C-10.66 23 -11.32 23 -12 23 C-12.20625 23.804375 -12.4125 24.60875 -12.625 25.4375 C-14.11600917 29.3005692 -16.06029435 32.2864272 -18.40234375 35.67578125 C-20.71828294 39.04493484 -22.85667741 42.51947172 -25 46 C-25.33 44.68 -25.66 43.36 -26 42 C-25.34 42 -24.68 42 -24 42 C-23.81824219 40.77023438 -23.81824219 40.77023438 -23.6328125 39.515625 C-23.46523437 38.43796875 -23.29765625 37.3603125 -23.125 36.25 C-22.96257812 35.18265625 -22.80015625 34.1153125 -22.6328125 33.015625 C-22.06341779 30.30221319 -21.49128746 28.32222622 -20 26 C-17.9375 25.375 -17.9375 25.375 -16 25 C-15.67 24.34 -15.34 23.68 -15 23 C-14.34 23 -13.68 23 -13 23 C-12.34 21.68 -11.68 20.36 -11 19 C-10.34 19 -9.68 19 -9 19 C-8.67 17.35 -8.34 15.7 -8 14 C-7.34 14 -6.68 14 -6 14 C-5.67 11.69 -5.34 9.38 -5 7 C-3.35 6.67 -1.7 6.34 0 6 C0 4.02 0 2.04 0 0 Z " fill="#39A3E8" transform="translate(236,130)"/>
<path d="M0 0 C0.63164062 0.18175781 1.26328125 0.36351562 1.9140625 0.55078125 C14.80438083 4.17270066 26.74697496 6.48384785 40.1875 6.3125 C42.10079102 6.31733398 42.10079102 6.31733398 44.05273438 6.32226562 C50.79106575 6.28419596 57.13284195 5.85940228 63.72387695 4.42651367 C66 4 66 4 70 4 C70 4.66 70 5.32 70 6 C60.50108025 9.16630658 50.86049143 9.09020284 40.9375 9.125 C39.55485962 9.13200928 39.55485962 9.13200928 38.14428711 9.13916016 C30.10160187 9.12054117 22.10822467 8.89418721 14.375 6.5 C9.89113763 5.19247257 5.64628007 4.43832831 1 4 C0.67 2.68 0.34 1.36 0 0 Z " fill="#6BBBE8" transform="translate(226,399)"/>
<path d="M0 0 C1.65322266 0.01740234 1.65322266 0.01740234 3.33984375 0.03515625 C4.99693359 0.04869141 4.99693359 0.04869141 6.6875 0.0625 C7.54214844 0.07410156 8.39679688 0.08570313 9.27734375 0.09765625 C-6.23818067 8.6419197 -33.96673478 6.8246743 -50.72265625 3.09765625 C-50.72265625 2.76765625 -50.72265625 2.43765625 -50.72265625 2.09765625 C-50.13605728 2.08734879 -49.54945831 2.07704132 -48.94508362 2.06642151 C-42.86227755 1.95858431 -36.77962651 1.84396869 -30.69702148 1.7253418 C-28.42426789 1.6819196 -26.15148012 1.64025009 -23.87866211 1.6003418 C-20.61952393 1.54281506 -17.36055894 1.47907073 -14.1015625 1.4140625 C-13.07865616 1.39735001 -12.05574982 1.38063751 -11.00184631 1.36341858 C-10.0609465 1.34347336 -9.12004669 1.32352814 -8.15063477 1.30297852 C-7.31790543 1.28743423 -6.48517609 1.27188995 -5.62721252 1.25587463 C-2.97096413 1.03521046 -2.94991463 0.10580755 0 0 Z " fill="#49A8E3" transform="translate(275.72265625,434.90234375)"/>
<path d="M0 0 C0.33 0 0.66 0 1 0 C4.98378806 21.62627804 4.13076975 45.30823818 1 67 C0.67 67 0.34 67 0 67 C0 44.89 0 22.78 0 0 Z " fill="#54ADE3" transform="translate(337,189)"/>
<path d="M0 0 C0.33 0 0.66 0 1 0 C1 2.31 1 4.62 1 7 C0.34 7 -0.32 7 -1 7 C-1 8.32 -1 9.64 -1 11 C-2.5 12.75 -2.5 12.75 -4 14 C-3.34 14 -2.68 14 -2 14 C-2.33 15.65 -2.66 17.3 -3 19 C-3.66 19 -4.32 19 -5 19 C-5 18.34 -5 17.68 -5 17 C-5.66 17 -6.32 17 -7 17 C-7.27070313 17.70640625 -7.54140625 18.4128125 -7.8203125 19.140625 C-9.0402953 22.0976694 -10.39565535 24.91395067 -11.875 27.75 C-12.36742187 28.71421875 -12.85984375 29.6784375 -13.3671875 30.671875 C-15 33 -15 33 -17.1953125 33.828125 C-17.79085938 33.88484375 -18.38640625 33.9415625 -19 34 C-19 34.66 -19 35.32 -19 36 C-19.99 35.67 -20.98 35.34 -22 35 C-20.88321917 33.3278148 -19.75633648 31.66237197 -18.625 30 C-17.99851562 29.071875 -17.37203125 28.14375 -16.7265625 27.1875 C-15.87191406 26.1046875 -15.87191406 26.1046875 -15 25 C-14.34 25 -13.68 25 -13 25 C-12.34 23.02 -11.68 21.04 -11 19 C-10.34 19 -9.68 19 -9 19 C-8.87310791 18.41573242 -8.74621582 17.83146484 -8.61547852 17.22949219 C-8.01170474 15.04239893 -7.2322387 13.316503 -6.15234375 11.328125 C-5.61577148 10.33232422 -5.61577148 10.33232422 -5.06835938 9.31640625 C-4.69517578 8.63449219 -4.32199219 7.95257813 -3.9375 7.25 C-3.56044922 6.55261719 -3.18339844 5.85523438 -2.79492188 5.13671875 C-1.86726612 3.42231698 -0.93416546 1.71086339 0 0 Z " fill="#49A7E5" transform="translate(354,292)"/>
<path d="M0 0 C1.65 0 3.3 0 5 0 C5 0.66 5 1.32 5 2 C0.64553138 4.0669211 -3.71811439 6.11131302 -8.09814453 8.12353516 C-9.69324917 8.85863473 -11.28285616 9.60564774 -12.87109375 10.35546875 C-18.33933497 12.77899326 -24.05685799 14.75639249 -30 13 C-32.5788343 10.63692474 -34.32247185 8.05501062 -36 5 C-35.01 4.67 -34.02 4.34 -33 4 C-32.67 5.32 -32.34 6.64 -32 8 C-22.99817418 10.32305182 -16.29968757 8.78750158 -8 5 C-6.64634222 4.45706285 -5.2922391 3.91523338 -3.9375 3.375 C-0.90421665 2.32550179 -0.90421665 2.32550179 0 0 Z " fill="#41A2E1" transform="translate(236,355)"/>
<path d="M0 0 C0.66 0 1.32 0 2 0 C2 11.22 2 22.44 2 34 C1.67 34 1.34 34 1 34 C0.67 29.38 0.34 24.76 0 20 C-2.73171252 22.73171252 -2.77158677 25.28787261 -3.4375 29.00390625 C-3.623125 29.66261719 -3.80875 30.32132812 -4 31 C-4.66 31.33 -5.32 31.66 -6 32 C-5.54208057 27.23763789 -4.73620973 22.81273349 -3.5 18.1875 C-2.17649436 13.13761927 -1.52368718 8.28707953 -1.2109375 3.08203125 C-1 1 -1 1 0 0 Z " fill="#59ABDE" transform="translate(381,295)"/>
<path d="M0 0 C-1.34071123 5.09470269 -3.79370258 9.08896676 -6.53515625 13.51953125 C-8.35095497 16.59428375 -9.70045205 19.67893303 -11 23 C-11.66 23 -12.32 23 -13 23 C-13.11214844 23.71542969 -13.22429687 24.43085938 -13.33984375 25.16796875 C-14.04456005 28.19115998 -15.13287798 30.56322688 -16.5625 33.3125 C-17.01753906 34.19550781 -17.47257813 35.07851562 -17.94140625 35.98828125 C-18.29074219 36.65214844 -18.64007813 37.31601563 -19 38 C-19.33 38 -19.66 38 -20 38 C-20 36.02 -20 34.04 -20 32 C-19.01 31.67 -18.02 31.34 -17 31 C-16.896875 30.175 -16.79375 29.35 -16.6875 28.5 C-16.00323066 25.01644699 -14.9478908 22.0101036 -13.62109375 18.734375 C-12.88761926 16.99322055 -12.88761926 16.99322055 -13 15 C-12.01 15 -11.02 15 -10 15 C-9.9175 14.46375 -9.835 13.9275 -9.75 13.375 C-8.74051957 10.17831198 -6.85334931 7.78002397 -5 5 C-4.64141484 3.67323492 -4.2981424 2.34164079 -4 1 C-2 0 -2 0 0 0 Z " fill="#39A2E5" transform="translate(209,177)"/>
<path d="M0 0 C0.33 0 0.66 0 1 0 C0.98952637 0.89605957 0.97905273 1.79211914 0.96826172 2.71533203 C0.93372161 6.11119269 0.90888242 9.50686077 0.89013672 12.90283203 C0.8802161 14.35924262 0.86667532 15.81563407 0.84912109 17.27197266 C0.7006405 29.92776013 2.04950283 41.96578635 4.625 54.375 C4.88539063 55.64085937 5.14578125 56.90671875 5.4140625 58.2109375 C5.60742188 59.13132812 5.80078125 60.05171875 6 61 C5.34 61 4.68 61 4 61 C3.58427734 59.51886719 3.58427734 59.51886719 3.16015625 58.0078125 C2.79437568 56.71351203 2.42848451 55.41924281 2.0625 54.125 C1.88009766 53.47402344 1.69769531 52.82304687 1.50976562 52.15234375 C0.48107307 48.49203515 0.48107307 48.49203515 -1 45 C-1.09412461 43.62167729 -1.12793566 42.23895393 -1.12939453 40.85742188 C-1.13254669 40.00313599 -1.13569885 39.1488501 -1.13894653 38.26867676 C-1.1369223 37.34470093 -1.13489807 36.4207251 -1.1328125 35.46875 C-1.13376923 34.52189331 -1.13472595 33.57503662 -1.13571167 32.5994873 C-1.13639286 30.59545831 -1.1345428 28.59142711 -1.13037109 26.58740234 C-1.125022 23.5126451 -1.13031814 20.43803393 -1.13671875 17.36328125 C-1.13605796 15.41927051 -1.13477677 13.47525986 -1.1328125 11.53125 C-1.13483673 10.60727417 -1.13686096 9.68329834 -1.13894653 8.73132324 C-1.13579437 7.87703735 -1.13264221 7.02275146 -1.12939453 6.14257812 C-1.12859894 5.38916138 -1.12780334 4.63574463 -1.12698364 3.85949707 C-1 2 -1 2 0 0 Z " fill="#4AA6DF" transform="translate(167,282)"/>
<path d="M0 0 C0.33 0 0.66 0 1 0 C2.39765083 7.41362614 1.95317148 11.53117395 -2 18 C-2.66 18 -3.32 18 -4 18 C-4.33 20.64 -4.66 23.28 -5 26 C-6.65 26.66 -8.3 27.32 -10 28 C-10 28.66 -10 29.32 -10 30 C-10.66 29.67 -11.32 29.34 -12 29 C-11.74307373 28.40574219 -11.48614746 27.81148437 -11.22143555 27.19921875 C-10.04148917 24.46699091 -8.8644777 21.73350791 -7.6875 19 C-7.28337891 18.06542969 -6.87925781 17.13085938 -6.46289062 16.16796875 C-4.16452524 10.82380209 -1.9917507 5.46603428 0 0 Z " fill="#2A9DE8" transform="translate(309,187)"/>
<path d="M0 0 C0.66 0.33 1.32 0.66 2 1 C1.94431315 16.25819629 -3.01260977 31.51990203 -10 45 C-10.33 45 -10.66 45 -11 45 C-11.19622241 40.78121808 -10.80230168 37.82989106 -9 34 C-8.34 34 -7.68 34 -7 34 C-6.67 30.7 -6.34 27.4 -6 24 C-5.34 24 -4.68 24 -4 24 C-3.87882812 23.27296875 -3.75765625 22.5459375 -3.6328125 21.796875 C-2.421875 14.53125 -1.2109375 7.265625 0 0 Z " fill="#48A8E2" transform="translate(380,328)"/>
<path d="M0 0 C2.97 0.495 2.97 0.495 6 1 C0.09136754 8.30804541 -6.62536641 15.53729475 -15 20 C-15.66 20 -16.32 20 -17 20 C-17 20.66 -17 21.32 -17 22 C-18.98 22.33 -20.96 22.66 -23 23 C-22.505 21.515 -22.505 21.515 -22 20 C-19.625 18.9375 -19.625 18.9375 -17 18 C-16.01 17.34 -15.02 16.68 -14 16 C-11.8125 15.375 -11.8125 15.375 -10 15 C-10.33 13.68 -10.66 12.36 -11 11 C-9.35 11 -7.7 11 -6 11 C-6 9.02 -6 7.04 -6 5 C-3.69 5 -1.38 5 1 5 C0.67 3.35 0.34 1.7 0 0 Z " fill="#33A2E6" transform="translate(338,357)"/>
<path d="M0 0 C-11.16120815 7.65580358 -24.59823172 13.05458202 -38 15 C-37.67 14.34 -37.34 13.68 -37 13 C-36.01 13 -35.02 13 -34 13 C-34 12.34 -34 11.68 -34 11 C-32.02 11 -30.04 11 -28 11 C-28 10.34 -28 9.68 -28 9 C-23.71 8.01 -19.42 7.02 -15 6 C-15 5.34 -15 4.68 -15 4 C-13.35 3.34 -11.7 2.68 -10 2 C-10 1.67 -10 1.34 -10 1 C-3.375 -1.125 -3.375 -1.125 0 0 Z " fill="#50ABE7" transform="translate(325,420)"/>
<path d="M0 0 C2 1.375 2 1.375 4 3 C4 3.66 4 4.32 4 5 C4.66 5 5.32 5 6 5 C7.85892472 7.02172864 9.55835413 9.03343995 11.25 11.1875 C11.97703125 12.0547168 11.97703125 12.0547168 12.71875 12.93945312 C14.078125 14.66796875 14.078125 14.66796875 16 18 C15.484375 20.80078125 15.484375 20.80078125 14 23 C13.01 23.66 12.02 24.32 11 25 C11 24.01 11 23.02 11 22 C11.66 22 12.32 22 13 22 C12.01 21.01 11.02 20.02 10 19 C9.01 19.66 8.02 20.32 7 21 C6.67 20.01 6.34 19.02 6 18 C6.99 17.67 7.98 17.34 9 17 C9 15.02 9 13.04 9 11 C7.68 10.67 6.36 10.34 5 10 C4.67 8.68 4.34 7.36 4 6 C3.01 6 2.02 6 1 6 C0.67 4.02 0.34 2.04 0 0 Z " fill="#1A96ED" transform="translate(259,69)"/>
<path d="M0 0 C0.33 0 0.66 0 1 0 C1 1.98 1 3.96 1 6 C0.01 6.33 -0.98 6.66 -2 7 C-2.33 8.65 -2.66 10.3 -3 12 C-3.99 12 -4.98 12 -6 12 C-6.12375 12.5775 -6.2475 13.155 -6.375 13.75 C-7.00648824 16.02335767 -7.88858191 17.9253529 -9 20 C-8.34 20.33 -7.68 20.66 -7 21 C-9.3125 23.5 -9.3125 23.5 -12 26 C-12.99 26 -13.98 26 -15 26 C-15 26.66 -15 27.32 -15 28 C-15.66 28 -16.32 28 -17 28 C-15.41797081 23.37764655 -12.92732352 19.68012952 -10.1875 15.6875 C-9.28549699 14.35742227 -8.3844461 13.02669833 -7.484375 11.6953125 C-7.05447266 11.06012695 -6.62457031 10.42494141 -6.18164062 9.77050781 C-4.71140525 7.5675849 -3.31550824 5.32405471 -1.9375 3.0625 C-1.298125 2.051875 -0.65875 1.04125 0 0 Z " fill="#5AAEE4" transform="translate(278,334)"/>
<path d="M0 0 C1 3 1 3 -0.3125 5.6875 C-0.869375 6.450625 -1.42625 7.21375 -2 8 C-2.66 8 -3.32 8 -4 8 C-3.67 9.65 -3.34 11.3 -3 13 C-5.65228812 14.07525194 -8.28368454 15.09456151 -11 16 C-11.78375 17.010625 -12.5675 18.02125 -13.375 19.0625 C-16 22 -16 22 -18.8125 22.375 C-19.534375 22.25125 -20.25625 22.1275 -21 22 C-18.17794568 19.08975649 -15.30374969 16.40630151 -12.1875 13.8125 C-7.45821223 9.74080843 -3.75331681 4.9611661 0 0 Z " fill="#2C9AE5" transform="translate(355,363)"/>
<path d="M0 0 C1.34344773 4.0303432 0.20581529 5.69876496 -1.3125 9.625 C-3.35439796 15.0377505 -4.92156113 20.31368593 -6 26 C-5.0925 25.38125 -4.185 24.7625 -3.25 24.125 C-0.85051183 22.55610389 1.40961612 21.19556179 4 20 C4 22 4 22 2.0625 24 C1.381875 24.66 0.70125 25.32 0 26 C-0.33 26.66 -0.66 27.32 -1 28 C-4 28.6875 -4 28.6875 -7 29 C-8 28 -8 28 -8.1875 24.75 C-8.005606 21.11211993 -7.3259834 19.30534992 -6 16 C-5.23031043 12.59885865 -4.55022513 9.18743324 -3.87890625 5.765625 C-3.58886719 4.85296875 -3.29882812 3.9403125 -3 3 C-2.01 2.67 -1.02 2.34 0 2 C0 1.34 0 0.68 0 0 Z " fill="#58B2E3" transform="translate(231,281)"/>
<path d="M0 0 C0.66 0 1.32 0 2 0 C0.39989315 7.75051756 -1.74910542 15.29046393 -4 22.875 C-4.35578125 24.09703125 -4.7115625 25.3190625 -5.078125 26.578125 C-5.59632813 28.32996094 -5.59632813 28.32996094 -6.125 30.1171875 C-6.43695313 31.17534668 -6.74890625 32.23350586 -7.0703125 33.32373047 C-8 36 -8 36 -10 39 C-9.17321655 31.97234063 -8.09751783 24.99001647 -7 18 C-6.34 18 -5.68 18 -5 18 C-4.89042969 17.28714844 -4.78085937 16.57429688 -4.66796875 15.83984375 C-3.72174813 10.12405578 -2.54615476 5.20804382 0 0 Z " fill="#50AAE2" transform="translate(328,293)"/>
<path d="M0 0 C0.66 0 1.32 0 2 0 C0.65898018 12.47501335 -1.53545489 24.70238626 -4 37 C-4.33 37 -4.66 37 -5 37 C-5 30.73 -5 24.46 -5 18 C-4.01 18 -3.02 18 -2 18 C-2.02320313 17.28714844 -2.04640625 16.57429688 -2.0703125 15.83984375 C-2.17815674 10.11639606 -1.92057311 5.40161186 0 0 Z " fill="#53ADE5" transform="translate(335,256)"/>
<path d="M0 0 C0.66 0.33 1.32 0.66 2 1 C0.41980408 6.2063297 -1.77884995 10.98373311 -4.125 15.875 C-4.49753906 16.65875 -4.87007813 17.4425 -5.25390625 18.25 C-6.16618997 20.16813499 -7.08266984 22.08427329 -8 24 C-8.33 24 -8.66 24 -9 24 C-9 22.35 -9 20.7 -9 19 C-8.34 19 -7.68 19 -7 19 C-7 18.38511719 -7 17.77023438 -7 17.13671875 C-7 13.7578125 -7 10.37890625 -7 7 C-6.01 6.67 -5.02 6.34 -4 6 C-4 5.34 -4 4.68 -4 4 C-3.01 4 -2.02 4 -1 4 C-0.67 2.68 -0.34 1.36 0 0 Z " fill="#1D98ED" transform="translate(264,199)"/>
<path d="M0 0 C-0.375 2.9375 -0.375 2.9375 -1 6 C-1.99 6.495 -1.99 6.495 -3 7 C-3 6.34 -3 5.68 -3 5 C-3.66 5 -4.32 5 -5 5 C-5.33 5.66 -5.66 6.32 -6 7 C-8.3984375 7.78125 -8.3984375 7.78125 -11.375 8.5 C-14.86830012 9.34797787 -16.97253222 9.98168815 -20 12 C-22.04296875 12.1953125 -22.04296875 12.1953125 -24.1875 12.125 C-26.0746875 12.063125 -26.0746875 12.063125 -28 12 C-24.9907593 9.99383954 -22.32383873 8.9266013 -18.9375 7.6875 C-13.73834259 5.73345426 -8.82707686 3.52504088 -3.92578125 0.91796875 C-2 0 -2 0 0 0 Z " fill="#3BA4EB" transform="translate(325,391)"/>
<path d="M0 0 C0.66 0.66 1.32 1.32 2 2 C1.86328125 3.8125 1.86328125 3.8125 1.3125 6 C1.11398438 6.80179688 0.91546875 7.60359375 0.7109375 8.4296875 C-0.23561725 11.85184697 -1.2871769 15.23815523 -2.33984375 18.62890625 C-3.20575378 21.73900915 -3.59173369 24.80191388 -4 28 C-4.33 28.33 -4.66 28.66 -5 29 C-5.3931648 30.67884238 -5.74085452 32.36850045 -6.0625 34.0625 C-6.23910156 34.98160156 -6.41570312 35.90070313 -6.59765625 36.84765625 C-6.73042969 37.55792969 -6.86320313 38.26820313 -7 39 C-7.33 39 -7.66 39 -8 39 C-7.5319797 25.54441644 -4.59622687 12.63962389 0 0 Z " fill="#5DB2E5" transform="translate(193,243)"/>
<path d="M0 0 C2.0625 1.6875 2.0625 1.6875 4 4 C3.89351013 9.2373654 0.44358235 13.31548928 -2.375 17.5 C-3.36262587 18.98915463 -4.34962164 20.47872738 -5.3359375 21.96875 C-6.02961426 23.01095703 -6.02961426 23.01095703 -6.73730469 24.07421875 C-8.22567219 26.34418063 -9.6323651 28.65548303 -11 31 C-11.99928333 28.301935 -12.03624754 27.11989571 -11.1875 24.3125 C-10 22 -10 22 -8 21 C-7.835 20.34 -7.67 19.68 -7.5 19 C-7.335 18.34 -7.17 17.68 -7 17 C-6.34 16.67 -5.68 16.34 -5 16 C-4.34786708 13.97536745 -4.34786708 13.97536745 -4 12 C-3.34 12 -2.68 12 -2 12 C0.62248477 8.79474083 1.03113289 7.37982123 0.6875 3.1875 C0.460625 2.135625 0.23375 1.08375 0 0 Z " fill="#4AA6E0" transform="translate(303,123)"/>
<path d="M0 0 C2 1.375 2 1.375 4 3 C4 3.66 4 4.32 4 5 C4.66 5 5.32 5 6 5 C6 5.66 6 6.32 6 7 C6.66 7 7.32 7 8 7 C8 7.66 8 8.32 8 9 C8.58426758 9.28085449 9.16853516 9.56170898 9.77050781 9.85107422 C11.84538881 10.92032411 13.73657641 12.08149103 15.671875 13.3828125 C16.33574219 13.82753906 16.99960938 14.27226562 17.68359375 14.73046875 C18.36550781 15.19066406 19.04742187 15.65085937 19.75 16.125 C20.44738281 16.59292969 21.14476562 17.06085938 21.86328125 17.54296875 C23.57692526 18.69322295 25.28865316 19.84633086 27 21 C23.92443042 21.97918775 23.31407577 22.1498998 20.25 20.6875 C19.5075 20.130625 18.765 19.57375 18 19 C18 18.34 18 17.68 18 17 C17.01 17 16.02 17 15 17 C13 15 13 15 12 13 C11.21625 12.690625 10.4325 12.38125 9.625 12.0625 C7.02412163 11.00976352 5.72372195 10.177333 4 8 C4 7.34 4 6.68 4 6 C3.01 6 2.02 6 1 6 C0.67 4.02 0.34 2.04 0 0 Z " fill="#4BA7DF" transform="translate(190,373)"/>
<path d="M0 0 C0.33 0 0.66 0 1 0 C0.91284983 1.93833996 0.80467036 3.8757429 0.6875 5.8125 C0.62949219 6.89144531 0.57148438 7.97039062 0.51171875 9.08203125 C-0.05090105 12.29025257 -0.65983284 12.91780403 -3 15 C-3.34541851 17.33157492 -3.67794257 19.66508361 -4 22 C-5.4375 24.9375 -5.4375 24.9375 -7 27 C-7.66 27 -8.32 27 -9 27 C-7.24192439 17.73014679 -4.45572909 8.35449204 0 0 Z " fill="#44A7E5" transform="translate(203,216)"/>
<path d="M0 0 C0.66 0 1.32 0 2 0 C0.53801587 4.27591057 -1.63079817 7.42615575 -4.375 11 C-5.14585937 12.010625 -5.91671875 13.02125 -6.7109375 14.0625 C-7.46632813 15.031875 -8.22171875 16.00125 -9 17 C-9.71414063 17.94875 -10.42828125 18.8975 -11.1640625 19.875 C-11.76992188 20.57625 -12.37578125 21.2775 -13 22 C-13.66 22 -14.32 22 -15 22 C-15.33 22.66 -15.66 23.32 -16 24 C-16 22.35 -16 20.7 -16 19 C-15.01 19 -14.02 19 -13 19 C-13 18.34 -13 17.68 -13 17 C-12.34 17 -11.68 17 -11 17 C-11 15.68 -11 14.36 -11 13 C-10.01 12.67 -9.02 12.34 -8 12 C-7.29618843 10.01276732 -6.6288189 8.01222047 -6 6 C-5.34 5.67 -4.68 5.34 -4 5 C-4 4.01 -4 3.02 -4 2 C-2.68 2 -1.36 2 0 2 C0 1.34 0 0.68 0 0 Z " fill="#4AA7E1" transform="translate(364,378)"/>
<path d="M0 0 C1.51953125 1.33203125 1.51953125 1.33203125 3 3 C2.6875 5.6875 2.6875 5.6875 2 8 C1.34 7.67 0.68 7.34 0 7 C0.33 6.34 0.66 5.68 1 5 C-2.92017227 8.36299043 -6.78773204 11.7170414 -10.375 15.4375 C-13 18 -13 18 -15 18 C-15.33 18.66 -15.66 19.32 -16 20 C-16 18.35 -16 16.7 -16 15 C-14.68 15 -13.36 15 -12 15 C-11.67 13.68 -11.34 12.36 -11 11 C-10.34 11 -9.68 11 -9 11 C-8.67 9.68 -8.34 8.36 -8 7 C-7.34 7 -6.68 7 -6 7 C-4.42159428 5.44294806 -4.42159428 5.44294806 -2.875 3.5 C-2.33617187 2.8503125 -1.79734375 2.200625 -1.2421875 1.53125 C-0.83226562 1.0259375 -0.42234375 0.520625 0 0 Z " fill="#41A5E5" transform="translate(284,316)"/>
<path d="M0 0 C1.70884005 1.62339805 3.37446717 3.29319053 5 5 C5 5.66 5 6.32 5 7 C5.66 7 6.32 7 7 7 C9.43326039 14.87746171 9.43326039 14.87746171 7.625 19.5625 C7.08875 20.366875 6.5525 21.17125 6 22 C3.64626599 18.46939899 3.34221585 15.41404244 2.875 11.3125 C2.78863281 10.61060547 2.70226562 9.90871094 2.61328125 9.18554688 C2.40173125 7.45788855 2.199914 5.7290434 2 4 C1.34 4 0.68 4 0 4 C0 2.68 0 1.36 0 0 Z " fill="#0C90F0" transform="translate(296,114)"/>
<path d="M0 0 C1.2380014 3.57644848 0.74926071 6.33694766 0 10 C2.64 8.02 5.28 6.04 8 4 C8.33 4.99 8.66 5.98 9 7 C8.01 7.33 7.02 7.66 6 8 C4.84478498 10.47130918 4.84478498 10.47130918 4 13 C3 14 3 14 -0.5625 14.0625 C-1.696875 14.041875 -2.83125 14.02125 -4 14 C-3.46148032 8.72250715 -2.22656164 4.74354436 0 0 Z " fill="#57AFE4" transform="translate(317,332)"/>
<path d="M0 0 C1 3 1 3 -0.125 5.375 C-2.18419938 8.25787913 -4.46541427 10.52301849 -7 13 C-8.83638751 15.12592593 -10.65039386 17.26798909 -12.44921875 19.42578125 C-13.21685547 20.20501953 -13.21685547 20.20501953 -14 21 C-14.66 21 -15.32 21 -16 21 C-14.61163356 16.83490067 -12.68244634 14.24872022 -9.6875 11.0625 C-6.34214343 7.45275234 -3.11041819 3.81277068 0 0 Z " fill="#49A9E3" transform="translate(275,104)"/>
<path d="M0 0 C0.66 0.33 1.32 0.66 2 1 C1.75765625 1.94617188 1.5153125 2.89234375 1.265625 3.8671875 C-1.36039576 14.20219072 -3.73285608 24.58078539 -6 35 C-6.33 35 -6.66 35 -7 35 C-6.85978195 32.35375716 -6.71310224 29.70815422 -6.5625 27.0625 C-6.52318359 26.30775391 -6.48386719 25.55300781 -6.44335938 24.77539062 C-6.11328125 19.11328125 -6.11328125 19.11328125 -5 18 C-4.63239269 15.67182036 -4.29758419 13.3381615 -4 11 C-3.34 11 -2.68 11 -2 11 C-2.061875 9.6696875 -2.061875 9.6696875 -2.125 8.3125 C-2.00102754 5.02722987 -1.38612096 2.94550705 0 0 Z " fill="#52ABE0" transform="translate(175,245)"/>
<path d="M0 0 C1 2 1 2 0.1875 5.0625 C-1 8 -1 8 -3 9 C-3.72867878 10.68920989 -4.45400653 12.3800536 -5.15234375 14.08203125 C-8.37190873 21.3668534 -8.37190873 21.3668534 -12.25 22.875 C-12.8275 22.91625 -13.405 22.9575 -14 23 C-12.72199484 19.55044666 -11.23881563 16.61909971 -9.1796875 13.57421875 C-8.64472656 12.77822266 -8.10976562 11.98222656 -7.55859375 11.16210938 C-7.00300781 10.34548828 -6.44742188 9.52886719 -5.875 8.6875 C-5.31167969 7.85154297 -4.74835938 7.01558594 -4.16796875 6.15429688 C-2.78279211 4.10000948 -1.39337781 2.04872962 0 0 Z " fill="#38A1E8" transform="translate(247,139)"/>
<path d="M0 0 C0.33 0 0.66 0 1 0 C0.50488599 6.56026059 0.50488599 6.56026059 -1.9375 8.6875 C-2.618125 9.120625 -3.29875 9.55375 -4 10 C-5.2516467 12.08334635 -5.2516467 12.08334635 -6 14 C-6.66 14 -7.32 14 -8 14 C-8.33 15.32 -8.66 16.64 -9 18 C-9.66 18 -10.32 18 -11 18 C-11 18.66 -11 19.32 -11 20 C-12.32 20.33 -13.64 20.66 -15 21 C-14.01 19.02 -13.02 17.04 -12 15 C-11.34 15 -10.68 15 -10 15 C-9.75378906 14.28457031 -9.50757813 13.56914063 -9.25390625 12.83203125 C-7.85391212 9.67005074 -6.12129608 7.36274928 -3.9375 4.6875 C-3.22464844 3.80449219 -2.51179687 2.92148438 -1.77734375 2.01171875 C-1.19082031 1.34785156 -0.60429687 0.68398437 0 0 Z " fill="#53ADE7" transform="translate(204,113)"/>
<path d="M0 0 C0.33 0 0.66 0 1 0 C1.02719556 2.37507855 1.04693247 4.74983964 1.0625 7.125 C1.07087891 7.79015625 1.07925781 8.4553125 1.08789062 9.140625 C1.10236624 12.09365133 1.01806438 14.8956764 0.51367188 17.80859375 C-0.03368694 21.20929451 -0.20979036 24.48751724 -0.31640625 27.9296875 C-0.35830078 29.21875 -0.40019531 30.5078125 -0.44335938 31.8359375 C-0.48316028 33.18228909 -0.52287273 34.52864329 -0.5625 35.875 C-0.60575183 37.24480333 -0.64936812 38.61459521 -0.69335938 39.984375 C-0.79915522 43.32282157 -0.90124372 46.661339 -1 50 C-1.33 50 -1.66 50 -2 50 C-2.05014865 45.12940909 -2.08606618 40.25897467 -2.10986328 35.38818359 C-2.11980362 33.73776628 -2.13336063 32.087366 -2.15087891 30.43701172 C-2.25799131 20.07231114 -1.84740704 10.23259388 0 0 Z " fill="#5EAEDD" transform="translate(119,280)"/>
<path d="M0 0 C0.33 0 0.66 0 1 0 C1 1.65 1 3.3 1 5 C0.34 5 -0.32 5 -1 5 C-1 5.99 -1 6.98 -1 8 C-1.66 8 -2.32 8 -3 8 C-3.1546875 9.175625 -3.1546875 9.175625 -3.3125 10.375 C-4 13 -4 13 -7 15 C-8.04718798 17.31254012 -9.04346365 19.6485148 -10 22 C-11.5625 24.9375 -11.5625 24.9375 -13 27 C-13.66 27 -14.32 27 -15 27 C-14.690625 26.236875 -14.38125 25.47375 -14.0625 24.6875 C-13.32106407 22.81210323 -12.63771783 20.91315348 -12 19 C-11.34 19 -10.68 19 -10 19 C-9.9278125 18.32582031 -9.855625 17.65164062 -9.78125 16.95703125 C-8.7367051 13.00342882 -6.74884348 10.06772759 -4.5 6.6875 C-4.08363281 6.04232422 -3.66726562 5.39714844 -3.23828125 4.73242188 C-2.19211239 3.13269764 -1.09996632 1.56322136 0 0 Z " fill="#50ADE4" transform="translate(232,162)"/>
<path d="M0 0 C0.33 1.32 0.66 2.64 1 4 C0.34 4 -0.32 4 -1 4 C-1.061875 4.7425 -1.12375 5.485 -1.1875 6.25 C-2.2452497 9.83007591 -4.06862656 10.80146992 -7 13 C-7.33 13.99 -7.66 14.98 -8 16 C-5.36 16 -2.72 16 0 16 C-3.8503105 18.56687367 -5.58569763 17.83288724 -10 17 C-10.6875 15.25 -10.6875 15.25 -11 13 C-9.6875 10.75 -9.6875 10.75 -8 9 C-7.34 9 -6.68 9 -6 9 C-5.7525 8.443125 -5.505 7.88625 -5.25 7.3125 C-3.78393985 4.60028873 -1.97010529 2.36412635 0 0 Z " fill="#3FA1DF" transform="translate(250,375)"/>
<path d="M0 0 C0.33 0 0.66 0 1 0 C1 5.28 1 10.56 1 16 C0.67 16 0.34 16 0 16 C-0.33 18.64 -0.66 21.28 -1 24 C-1.33 24 -1.66 24 -2 24 C-2.06058594 23.32453125 -2.12117188 22.6490625 -2.18359375 21.953125 C-2.26738281 21.06109375 -2.35117187 20.1690625 -2.4375 19.25 C-2.51871094 18.36828125 -2.59992188 17.4865625 -2.68359375 16.578125 C-2.92830449 14.05552831 -2.92830449 14.05552831 -3.5859375 11.89453125 C-4.2885373 8.67980573 -3.0500569 6.03963838 -2 3 C-1.34 2.01 -0.68 1.02 0 0 Z " fill="#0D90EB" transform="translate(381,313)"/>
<path d="M0 0 C4.53022563 3.90102763 7.32853679 8.20414706 9 14 C8.67 14.99 8.34 15.98 8 17 C5.4375 18.1875 5.4375 18.1875 3 19 C2.18233605 16.54700814 1.97372184 15.12810602 2.5 12.5625 C3.0623328 9.6805444 2.85436555 7.79610544 2 5 C1.34 4.67 0.68 4.34 0 4 C0 2.68 0 1.36 0 0 Z " fill="#309DE9" transform="translate(321,150)"/>
<path d="M0 0 C1.26649662 3.53969567 0.74194326 5.35528853 -0.75 8.75 C-1.12125 9.61882812 -1.4925 10.48765625 -1.875 11.3828125 C-2.24625 12.24648438 -2.6175 13.11015625 -3 14 C-3.59337481 15.53782971 -4.17786736 17.07914162 -4.75 18.625 C-5.1625 19.73875 -5.575 20.8525 -6 22 C-6.66 22 -7.32 22 -8 22 C-8 22.66 -8 23.32 -8 24 C-8.66 24 -9.32 24 -10 24 C-10.33 25.65 -10.66 27.3 -11 29 C-11.66 29 -12.32 29 -13 29 C-11.50878972 24.04732752 -9.42208776 19.6388014 -7.0625 15.0625 C-4.52010778 10.10507101 -2.1400969 5.14562484 0 0 Z " fill="#5BB1E3" transform="translate(374,327)"/>
<path d="M0 0 C0 0.66 0 1.32 0 2 C-12.8215501 6.27385003 -26.66306432 5.11471494 -40 5 C-40 4.67 -40 4.34 -40 4 C-38.90945313 3.96261719 -37.81890625 3.92523438 -36.6953125 3.88671875 C-27.60519959 3.51160673 -18.79218818 2.6664912 -9.84033203 1.01635742 C-6.46973604 0.39525625 -3.44440031 0 0 0 Z " fill="#46A2DB" transform="translate(296,403)"/>
<path d="M0 0 C0.33 1.32 0.66 2.64 1 4 C2.32 4.33 3.64 4.66 5 5 C5.144375 6.051875 5.28875 7.10375 5.4375 8.1875 C5.87526966 11.15460549 6.37804866 14.06794366 7 17 C7.99 17.33 8.98 17.66 10 18 C10 18.99 10 19.98 10 21 C10.66 21.33 11.32 21.66 12 22 C11.34 22.66 10.68 23.32 10 24 C8.34218111 21.27794663 6.70095788 18.54624351 5.0625 15.8125 C4.59392578 15.04357422 4.12535156 14.27464844 3.64257812 13.48242188 C-0.76054405 6.10164874 -0.76054405 6.10164874 -1 2 C-0.67 1.34 -0.34 0.68 0 0 Z " fill="#3CA3E7" transform="translate(128,363)"/>
<path d="M0 0 C0.5859375 1.90234375 0.5859375 1.90234375 1 4 C-0.375 5.5625 -0.375 5.5625 -2 7 C-2.33 7.99 -2.66 8.98 -3 10 C-3.66 10.45375 -4.32 10.9075 -5 11.375 C-7.52195876 13.4240915 -7.65862714 14.84230107 -8 18 C-10.49064888 18.68707555 -12.37886292 19 -15 19 C-14.21654285 17.82780457 -13.42297164 16.66236332 -12.625 15.5 C-12.18414062 14.8503125 -11.74328125 14.200625 -11.2890625 13.53125 C-10.65097656 12.77328125 -10.65097656 12.77328125 -10 12 C-9.34 12 -8.68 12 -8 12 C-7.79375 11.319375 -7.5875 10.63875 -7.375 9.9375 C-5.54591134 6.02990149 -2.89720966 3.16142061 0 0 Z " fill="#39A1E4" transform="translate(228,83)"/>
<path d="M0 0 C1.45880109 0.14107747 2.91703551 0.28802415 4.375 0.4375 C5.59316406 0.55931641 5.59316406 0.55931641 6.8359375 0.68359375 C9 1 9 1 11 2 C12.70363822 2.22622081 14.41328701 2.40888473 16.125 2.5625 C17.03507812 2.64628906 17.94515625 2.73007812 18.8828125 2.81640625 C19.58148438 2.87699219 20.28015625 2.93757813 21 3 C21 3.66 21 4.32 21 5 C24.63 5 28.26 5 32 5 C25.47380445 8.26309778 20.27864956 7.04753844 13.4375 5.125 C12.17808594 4.77695312 10.91867188 4.42890625 9.62109375 4.0703125 C6.38703562 3.11439888 3.19053873 2.09137072 0 1 C0 0.67 0 0.34 0 0 Z " fill="#46A7E5" transform="translate(197,430)"/>
<path d="M0 0 C0.66 0 1.32 0 2 0 C1.23754579 4.81600823 -0.41279856 9.24615702 -2.0625 13.8125 C-2.34416016 14.60076172 -2.62582031 15.38902344 -2.91601562 16.20117188 C-3.60758538 18.13522289 -4.30337278 20.06776488 -5 22 C-5.33 22 -5.66 22 -6 22 C-6 17.38 -6 12.76 -6 8 C-4.68 7.34 -3.36 6.68 -2 6 C-0.70768358 2.95800528 -0.70768358 2.95800528 0 0 Z " fill="#45A8E5" transform="translate(183,224)"/>
<path d="M0 0 C0.33 0 0.66 0 1 0 C1.3690205 13.6332574 1.3690205 13.6332574 -1 20 C-1.99 20 -2.98 20 -4 20 C-4.33 22.97 -4.66 25.94 -5 29 C-5.98288699 25.06845203 -5.9730203 23.89208122 -5.0390625 20.15625 C-4.81476563 19.23972656 -4.59046875 18.32320313 -4.359375 17.37890625 C-4.11703125 16.42886719 -3.8746875 15.47882813 -3.625 14.5 C-3.39039062 13.54996094 -3.15578125 12.59992188 -2.9140625 11.62109375 C-2.28466143 9.07845648 -1.64434571 6.53888251 -1 4 C-0.66613456 2.66679981 -0.33261115 1.33351367 0 0 Z " fill="#4BAAE4" transform="translate(126,251)"/>
<path d="M0 0 C0.99 0.33 1.98 0.66 3 1 C2.36929092 4.30713779 1.16114679 6.55199421 -0.72265625 9.328125 C-1.52993164 10.52695313 -1.52993164 10.52695313 -2.35351562 11.75 C-2.91748047 12.575 -3.48144531 13.4 -4.0625 14.25 C-4.63033203 15.09046875 -5.19816406 15.9309375 -5.78320312 16.796875 C-7.18366519 18.86814662 -8.5893906 20.93563166 -10 23 C-10.33 21.68 -10.66 20.36 -11 19 C-10.34 19 -9.68 19 -9 19 C-8.67 17.35 -8.34 15.7 -8 14 C-7.34 14 -6.68 14 -6 14 C-5.67 11.69 -5.34 9.38 -5 7 C-3.35 6.67 -1.7 6.34 0 6 C0 4.02 0 2.04 0 0 Z " fill="#42A4E4" transform="translate(236,130)"/>
<path d="M0 0 C0.66 0 1.32 0 2 0 C1.30128343 3.29394956 0.13620306 6.15105426 -1.3125 9.1875 C-1.72113281 10.06792969 -2.12976563 10.94835937 -2.55078125 11.85546875 C-4 14 -4 14 -6.16796875 14.80078125 C-6.77253906 14.86652344 -7.37710937 14.93226563 -8 15 C-8 15.66 -8 16.32 -8 17 C-8.99 16.67 -9.98 16.34 -11 16 C-9.88321917 14.3278148 -8.75633648 12.66237197 -7.625 11 C-6.99851562 10.071875 -6.37203125 9.14375 -5.7265625 8.1875 C-5.15679687 7.465625 -4.58703125 6.74375 -4 6 C-3.34 6 -2.68 6 -2 6 C-1.34 4.02 -0.68 2.04 0 0 Z " fill="#5FB1E4" transform="translate(343,311)"/>
<path d="M0 0 C0.66 0 1.32 0 2 0 C1.67 3.3 1.34 6.6 1 10 C0.01 10.33 -0.98 10.66 -2 11 C-2 12.98 -2 14.96 -2 17 C-2.66 17 -3.32 17 -4 17 C-4.33 18.65 -4.66 20.3 -5 22 C-5.66 22 -6.32 22 -7 22 C-6.00956295 17.16371695 -5.04301154 12.52381127 -3 8 C-2.34 8.33 -1.68 8.66 -1 9 C-0.67 6.03 -0.34 3.06 0 0 Z " fill="#1291EA" transform="translate(369,252)"/>
<path d="M0 0 C4.48931581 6.73397372 6.38477641 15.00209339 7 23 C6.34 23 5.68 23 5 23 C2.11003121 15.29789712 0.32419014 8.23442944 0 0 Z " fill="#50A9E1" transform="translate(330,166)"/>
<path d="M0 0 C-1.45699098 1.79275845 -2.91563655 3.58417229 -4.375 5.375 C-5.18710938 6.37273437 -5.99921875 7.37046875 -6.8359375 8.3984375 C-9 11 -9 11 -11 13 C-11 11.35 -11 9.7 -11 8 C-10.34 8 -9.68 8 -9 8 C-9 5.69 -9 3.38 -9 1 C-3.375 -1.125 -3.375 -1.125 0 0 Z " fill="#339EE7" transform="translate(260,107)"/>
<path d="M0 0 C2.912575 0.08566397 4.56798024 0.57910955 6.66796875 2.625 C8.16091772 4.38391375 9.60436262 6.16313019 11 8 C10.01 8.495 10.01 8.495 9 9 C9 8.34 9 7.68 9 7 C7.68 7.33 6.36 7.66 5 8 C4.67 7.34 4.34 6.68 4 6 C4.33 5.01 4.66 4.02 5 3 C4.01 3 3.02 3 2 3 C2 3.66 2 4.32 2 5 C0.02 5.99 0.02 5.99 -2 7 C-2.99 6.34 -3.98 5.68 -5 5 C-3.625 3.5 -3.625 3.5 -2 2 C-1.34 2 -0.68 2 0 2 C0 1.34 0 0.68 0 0 Z " fill="#44A6E6" transform="translate(248,61)"/>
<path d="M0 0 C0.33 0 0.66 0 1 0 C1 2.64 1 5.28 1 8 C0.01 7.67 -0.98 7.34 -2 7 C-2.391875 7.804375 -2.78375 8.60875 -3.1875 9.4375 C-5 12 -5 12 -7.6875 12.8125 C-8.450625 12.874375 -9.21375 12.93625 -10 13 C-8.38731308 10.28775382 -6.75098126 7.62647188 -5 5 C-4.34 5 -3.68 5 -3 5 C-3 4.34 -3 3.68 -3 3 C-2.34 3 -1.68 3 -1 3 C-0.67 2.01 -0.34 1.02 0 0 Z " fill="#46A8E5" transform="translate(262,271)"/>
<path d="M0 0 C0.66 0 1.32 0 2 0 C1.46199791 4.98599117 -0.11744529 8.51835705 -2.5625 12.875 C-3.20316406 14.02742187 -3.84382813 15.17984375 -4.50390625 16.3671875 C-4.99761719 17.23601562 -5.49132812 18.10484375 -6 19 C-6.66 17.68 -7.32 16.36 -8 15 C-7.34 15 -6.68 15 -6 15 C-5.67 12.36 -5.34 9.72 -5 7 C-4.01 7 -3.02 7 -2 7 C-1.34 4.69 -0.68 2.38 0 0 Z " fill="#53AAE1" transform="translate(273,181)"/>
<path d="M0 0 C2 2 2 2 2.046875 5.59765625 C1.96085982 7.08674161 1.86115724 8.57508012 1.75 10.0625 C1.6991626 10.82876709 1.6483252 11.59503418 1.59594727 12.38452148 C1.19982475 17.74553112 0.41708783 22.8040113 -1 28 C-1.33 28 -1.66 28 -2 28 C-2.30470113 18.55426495 -1.14169926 9.3578564 0 0 Z " fill="#3DA0E3" transform="translate(371,282)"/>
<path d="M0 0 C0.99 0 1.98 0 3 0 C1.6961899 4.40035907 -0.01273553 7.96040185 -2.5 11.8125 C-3.1084375 12.76769531 -3.716875 13.72289062 -4.34375 14.70703125 C-6 17 -6 17 -8 18 C-7.67 16.35 -7.34 14.7 -7 13 C-6.01 12.67 -5.02 12.34 -4 12 C-3.67 9.36 -3.34 6.72 -3 4 C-2.01 4 -1.02 4 0 4 C0 2.68 0 1.36 0 0 Z " fill="#59B0E5" transform="translate(358,332)"/>
<path d="M0 0 C0.66 0.99 1.32 1.98 2 3 C1.67 3.66 1.34 4.32 1 5 C0.34 5 -0.32 5 -1 5 C-1.33 7.64 -1.66 10.28 -2 13 C-2.99 13.33 -3.98 13.66 -5 14 C-5 15.32 -5 16.64 -5 18 C-6.32 17.67 -7.64 17.34 -9 17 C-8.43410156 16.02417969 -7.86820312 15.04835937 -7.28515625 14.04296875 C-6.54412818 12.75789475 -5.80325061 11.47273396 -5.0625 10.1875 C-4.68931641 9.54490234 -4.31613281 8.90230469 -3.93164062 8.24023438 C-2.36533365 5.51683576 -0.99630626 2.98891878 0 0 Z " fill="#42A8E5" transform="translate(296,217)"/>
<path d="M0 0 C0.33 0 0.66 0 1 0 C1.33 2.97 1.66 5.94 2 9 C0.02 9.99 0.02 9.99 -2 11 C-3.26804566 13.0335948 -3.26804566 13.0335948 -4 15 C-4.66 14.67 -5.32 14.34 -6 14 C-2.99633316 4.22210581 -2.99633316 4.22210581 0 0 Z " fill="#3DA5E7" transform="translate(148,199)"/>
<path d="M0 0 C3.09005549 0.43403295 6.05090846 0.96440101 9 2 C10.875 4.5 10.875 4.5 12 7 C12.99 7.66 13.98 8.32 15 9 C13.265625 9.67578125 13.265625 9.67578125 11 10 C8.859375 8.85546875 8.859375 8.85546875 6.75 7.1875 C6.04359375 6.64480469 5.3371875 6.10210937 4.609375 5.54296875 C4.07828125 5.03378906 3.5471875 4.52460938 3 4 C3 3.34 3 2.68 3 2 C2.01 1.67 1.02 1.34 0 1 C0 0.67 0 0.34 0 0 Z " fill="#3BA4E4" transform="translate(155,405)"/>
<path d="M0 0 C-1.76463072 6.10737442 -3.69557475 12.07433507 -6 18 C-7.47528356 13.57414933 -6.95241875 9.53120434 -6 5 C-2.9 0 -2.9 0 0 0 Z " fill="#55ADE6" transform="translate(239,262)"/>
<path d="M0 0 C0.33 0 0.66 0 1 0 C1 1.98 1 3.96 1 6 C0.01 6 -0.98 6 -2 6 C-2 6.99 -2 7.98 -2 9 C-2.99 9.495 -2.99 9.495 -4 10 C-4.65213292 12.02463255 -4.65213292 12.02463255 -5 14 C-6.32 14.33 -7.64 14.66 -9 15 C-7.61423779 11.13518578 -5.81080359 8.03192572 -3.4375 4.6875 C-2.81746094 3.80449219 -2.19742188 2.92148438 -1.55859375 2.01171875 C-0.78708984 1.01591797 -0.78708984 1.01591797 0 0 Z " fill="#47A5E1" transform="translate(178,149)"/>
<path d="M0 0 C0.66 0.33 1.32 0.66 2 1 C1.85890014 3.10448938 1.71195825 5.2085877 1.5625 7.3125 C1.48128906 8.48425781 1.40007812 9.65601563 1.31640625 10.86328125 C1 14 1 14 0 17 C-0.66 17 -1.32 17 -2 17 C-2.33 18.32 -2.66 19.64 -3 21 C-2.29411026 13.94110263 -1.21786614 6.98795036 0 0 Z " fill="#3DA2E2" transform="translate(380,328)"/>
<path d="M0 0 C0.66 0 1.32 0 2 0 C1.71815415 2.60557491 1.42497289 5.20900398 1.125 7.8125 C1.04636719 8.55048828 0.96773438 9.28847656 0.88671875 10.04882812 C0.45539714 13.71506181 0.0803217 15.87951745 -2 19 C-2.19818283 12.29481414 -2.30844801 6.34823202 0 0 Z " fill="#389DE1" transform="translate(335,256)"/>
<path d="M0 0 C0.68707555 2.49064888 1 4.37886292 1 7 C0.34 7 -0.32 7 -1 7 C-1.103125 8.11375 -1.20625 9.2275 -1.3125 10.375 C-1.539375 11.57125 -1.76625 12.7675 -2 14 C-2.99 14.66 -3.98 15.32 -5 16 C-6.04769518 12.72520421 -6.13815174 11.32916541 -4.78515625 8.10546875 C-4.21667969 7.14253906 -3.64820313 6.17960938 -3.0625 5.1875 C-2.49660156 4.21167969 -1.93070313 3.23585937 -1.34765625 2.23046875 C-0.90292969 1.49441406 -0.45820313 0.75835937 0 0 Z " fill="#37A1E3" transform="translate(216,189)"/>
<path d="M0 0 C0.66 0.99 1.32 1.98 2 3 C1.34 3 0.68 3 0 3 C-0.020625 3.70125 -0.04125 4.4025 -0.0625 5.125 C-1.44979209 9.3793624 -4.51624172 11.35307139 -8 14 C-8 9.96618977 -6.40426438 8.50566363 -4 5.3125 C-3.2575 4.31863281 -2.515 3.32476562 -1.75 2.30078125 C-1.1725 1.54152344 -0.595 0.78226562 0 0 Z " fill="#4FACE5" transform="translate(257,125)"/>
<path d="M0 0 C0.99 0 1.98 0 3 0 C3 0.66 3 1.32 3 2 C2.34 2 1.68 2 1 2 C1 2.66 1 3.32 1 4 C-0.32 4.33 -1.64 4.66 -3 5 C-3 5.66 -3 6.32 -3 7 C-8.41176471 11 -8.41176471 11 -11 11 C-10.67 9.68 -10.34 8.36 -10 7 C-8.35 6.67 -6.7 6.34 -5 6 C-5 5.01 -5 4.02 -5 3 C-3.35 3 -1.7 3 0 3 C0 2.01 0 1.02 0 0 Z " fill="#4FAAE1" transform="translate(257,342)"/>
<path d="M0 0 C0.66 0.33 1.32 0.66 2 1 C0.1668733 6.99932374 -2.07321751 12.44920563 -5 18 C-5.33 18 -5.66 18 -6 18 C-6 16.35 -6 14.7 -6 13 C-5.34 13 -4.68 13 -4 13 C-3.855625 12.278125 -3.71125 11.55625 -3.5625 10.8125 C-3.04166667 8.20833333 -2.52083333 5.60416667 -2 3 C-1.34 3 -0.68 3 0 3 C0 2.01 0 1.02 0 0 Z " fill="#5CAFE6" transform="translate(261,205)"/>
<path d="M0 0 C-1.54545146 5.47932789 -4.15543212 10.11429181 -7 15 C-7.33 15 -7.66 15 -8 15 C-8.37169941 10.6635069 -7.31392722 8.60972647 -5 5 C-4.7215625 3.88625 -4.7215625 3.88625 -4.4375 2.75 C-4.2209375 1.88375 -4.2209375 1.88375 -4 1 C-2 0 -2 0 0 0 Z " fill="#51ADE2" transform="translate(209,177)"/>
<path d="M0 0 C0.33 0.66 0.66 1.32 1 2 C1.66 2.33 2.32 2.66 3 3 C0.6875 5.5 0.6875 5.5 -2 8 C-2.99 8 -3.98 8 -5 8 C-5 8.66 -5 9.32 -5 10 C-5.66 10 -6.32 10 -7 10 C-5.6062718 5.56541027 -3.39417765 3.12621626 0 0 Z " fill="#349EE4" transform="translate(268,352)"/>
<path d="M0 0 C0.66 0 1.32 0 2 0 C2.1799928 5.21979128 1.97094808 9.07262981 0 14 C-0.33 14 -0.66 14 -1 14 C-1.02685938 11.85423363 -1.04633088 9.70837355 -1.0625 7.5625 C-1.07410156 6.36753906 -1.08570313 5.17257812 -1.09765625 3.94140625 C-1 1 -1 1 0 0 Z " fill="#65A9D1" transform="translate(381,295)"/>
<path d="M0 0 C0.33 0.66 0.66 1.32 1 2 C0.360625 2.61875 -0.27875 3.2375 -0.9375 3.875 C-3.03883584 5.82597612 -3.03883584 5.82597612 -4 8 C-7 8.6875 -7 8.6875 -10 9 C-11 8 -11 8 -11.0625 4.4375 C-11.041875 3.303125 -11.02125 2.16875 -11 1 C-10.67 1 -10.34 1 -10 1 C-9.67 2.65 -9.34 4.3 -9 6 C-8.071875 5.38125 -7.14375 4.7625 -6.1875 4.125 C-4.125 2.75 -2.0625 1.375 0 0 Z " fill="#40A6E4" transform="translate(234,301)"/>
<path d="M0 0 C1.24546405 2.49092811 0.7767578 3.41080733 0 6 C-0.66 6 -1.32 6 -2 6 C-2.103125 6.7425 -2.20625 7.485 -2.3125 8.25 C-3.04933797 11.1973519 -3.94799142 12.78383074 -6 15 C-6.66 15 -7.32 15 -8 15 C-6.62712658 11.30123909 -4.93644547 8.0485524 -2.875 4.6875 C-2.33617187 3.80449219 -1.79734375 2.92148438 -1.2421875 2.01171875 C-0.83226562 1.34785156 -0.42234375 0.68398437 0 0 Z " fill="#5AB0E4" transform="translate(163,172)"/>
<path d="M0 0 C0.66 0 1.32 0 2 0 C0.54955729 4.10958767 -1.51110752 7.43258745 -4 11 C-4.99 10.01 -5.98 9.02 -7 8 C-6.505 7.566875 -6.01 7.13375 -5.5 6.6875 C-3.66781808 5.00259517 -3.66781808 5.00259517 -4 2 C-2.68 2 -1.36 2 0 2 C0 1.34 0 0.68 0 0 Z " fill="#35A0E4" transform="translate(364,378)"/>
<path d="M0 0 C1 2 1 2 0.3984375 4.56640625 C0.06070312 5.55511719 -0.27703125 6.54382813 -0.625 7.5625 C-0.94726562 8.55378906 -1.26953125 9.54507813 -1.6015625 10.56640625 C-3 13 -3 13 -5.6484375 13.83984375 C-6.42445313 13.89269531 -7.20046875 13.94554687 -8 14 C-7.043419 12.22821947 -6.08467012 10.45760924 -5.125 8.6875 C-4.59132813 7.70136719 -4.05765625 6.71523437 -3.5078125 5.69921875 C-2 3 -2 3 0 0 Z " fill="#58AFE5" transform="translate(286,236)"/>
<path d="M0 0 C1.04692131 3.40249424 1.3774792 6.4516955 1 10 C-0.875 11.875 -0.875 11.875 -3 13 C-3.66 13 -4.32 13 -5 13 C-4.54554036 11.58208592 -4.08625056 10.16571954 -3.625 8.75 C-3.24214844 7.56664062 -3.24214844 7.56664062 -2.8515625 6.359375 C-2.04826333 4.13372042 -1.10288338 2.09068328 0 0 Z " fill="#4AAAE8" transform="translate(141,213)"/>
<path d="M0 0 C0 0.66 0 1.32 0 2 C-6.24161903 5.58125682 -10.75420281 7.67090715 -18 7 C-14.87351251 4.91567501 -11.94269132 3.71441389 -8.4375 2.375 C-7.28121094 1.92898438 -6.12492187 1.48296875 -4.93359375 1.0234375 C-2 0 -2 0 0 0 Z " fill="#57AFE7" transform="translate(315,396)"/>
<path d="M0 0 C1.175625 1.2065625 1.175625 1.2065625 2.375 2.4375 C4.71982856 4.98690417 4.71982856 4.98690417 7 6 C7 7.32 7 8.64 7 10 C7.99 10.33 8.98 10.66 10 11 C9.34 11.66 8.68 12.32 8 13 C6.68181446 11.56771184 5.37063296 10.12897516 4.0625 8.6875 C3.33160156 7.88699219 2.60070312 7.08648437 1.84765625 6.26171875 C0 4 0 4 -1 1 C-0.67 0.67 -0.34 0.34 0 0 Z " fill="#5DB1E5" transform="translate(140,386)"/>
<path d="M0 0 C0 0.66 0 1.32 0 2 C-4.38461538 5 -4.38461538 5 -7 5 C-7 5.66 -7 6.32 -7 7 C-8.98 7.33 -10.96 7.66 -13 8 C-12.67 7.01 -12.34 6.02 -12 5 C-9.625 3.9375 -9.625 3.9375 -7 3 C-6.01 2.34 -5.02 1.68 -4 1 C-2 0 -2 0 0 0 Z " fill="#43A4DF" transform="translate(328,372)"/>
<path d="M0 0 C2.1827846 3.68226271 2.8558404 7.59810785 3.625 11.75 C3.7590625 12.44738281 3.893125 13.14476562 4.03125 13.86328125 C4.35943264 15.57451932 4.68043502 17.28713171 5 19 C4.34 19 3.68 19 3 19 C0.36903961 12.51656189 -0.39325819 6.97669157 0 0 Z " fill="#5AACE3" transform="translate(168,324)"/>
<path d="M0 0 C2 1.375 2 1.375 4 3 C4 3.66 4 4.32 4 5 C4.66 5 5.32 5 6 5 C7.38938077 6.96147874 8.7260411 8.96166576 10 11 C8.35 10.67 6.7 10.34 5 10 C4.67 8.68 4.34 7.36 4 6 C3.01 6 2.02 6 1 6 C0.67 4.02 0.34 2.04 0 0 Z " fill="#52ACE3" transform="translate(259,69)"/>
<path d="M0 0 C1.65 0 3.3 0 5 0 C2.72676563 2.5938187 0.76597542 3.68311469 -2.5 4.75 C-3.2734375 5.01296875 -4.046875 5.2759375 -4.84375 5.546875 C-7 6 -7 6 -10 5 C-8.68 4.67 -7.36 4.34 -6 4 C-6 3.34 -6 2.68 -6 2 C-4.02 2 -2.04 2 0 2 C0 1.34 0 0.68 0 0 Z " fill="#41A5E1" transform="translate(297,429)"/>
<path d="M0 0 C1.32 0.33 2.64 0.66 4 1 C2.23871656 2.36656457 0.46563912 3.71794085 -1.3125 5.0625 C-2.29863281 5.81660156 -3.28476562 6.57070313 -4.30078125 7.34765625 C-5.63689453 8.16556641 -5.63689453 8.16556641 -7 9 C-7.99 8.67 -8.98 8.34 -10 8 C-9.01 7.67 -8.02 7.34 -7 7 C-7 6.01 -7 5.02 -7 4 C-5.68 4 -4.36 4 -3 4 C-3 3.34 -3 2.68 -3 2 C-2.01 2 -1.02 2 0 2 C0 1.34 0 0.68 0 0 Z " fill="#4FACE4" transform="translate(336,409)"/>
<path d="M0 0 C0.66 0 1.32 0 2 0 C2 1.32 2 2.64 2 4 C1.01 4 0.02 4 -1 4 C-1.04125 4.928125 -1.0825 5.85625 -1.125 6.8125 C-2 10 -2 10 -5.0625 11.875 C-6.5165625 12.431875 -6.5165625 12.431875 -8 13 C-8 12.34 -8 11.68 -8 11 C-7.34 11 -6.68 11 -6 11 C-5.7525 10.29875 -5.505 9.5975 -5.25 8.875 C-3.82819762 5.60485452 -2.12753712 2.858878 0 0 Z " fill="#5EB2E5" transform="translate(259,362)"/>
<path d="M0 0 C0.33 0.66 0.66 1.32 1 2 C0.0625 4.625 0.0625 4.625 -1 7 C-1.66 7 -2.32 7 -3 7 C-3.33 8.32 -3.66 9.64 -4 11 C-5.32 11.33 -6.64 11.66 -8 12 C-6.59023295 8.96147295 -4.91129772 6.4060405 -2.875 3.75 C-2.06675781 2.69039063 -2.06675781 2.69039063 -1.2421875 1.609375 C-0.83226562 1.07828125 -0.42234375 0.5471875 0 0 Z " fill="#5AB3E6" transform="translate(271,259)"/>
<path d="M0 0 C0.33 0 0.66 0 1 0 C1.33 2.64 1.66 5.28 2 8 C0.35 8.66 -1.3 9.32 -3 10 C-3 10.66 -3 11.32 -3 12 C-3.66 11.67 -4.32 11.34 -5 11 C-3.35 7.37 -1.7 3.74 0 0 Z " fill="#43A7E4" transform="translate(302,205)"/>
<path d="M0 0 C0.33 0.99 0.66 1.98 1 3 C0.01 3.33 -0.98 3.66 -2 4 C-2.73323796 6.01508358 -2.73323796 6.01508358 -3 8 C-3.66 8 -4.32 8 -5 8 C-5 8.66 -5 9.32 -5 10 C-6.32 10.33 -7.64 10.66 -9 11 C-8.01 9.02 -7.02 7.04 -6 5 C-5.34 5 -4.68 5 -4 5 C-3.67 4.01 -3.34 3.02 -3 2 C-2.01 2 -1.02 2 0 2 C0 1.34 0 0.68 0 0 Z " fill="#44A2E4" transform="translate(198,123)"/>
<path d="M0 0 C0 3.74016583 -0.9341591 4.45276193 -3.375 7.1875 C-4.00148438 7.90292969 -4.62796875 8.61835937 -5.2734375 9.35546875 C-7 11 -7 11 -9 11 C-7.59928507 5.70841026 -4.14512755 3.22521956 0 0 Z " fill="#329DDF" transform="translate(268,114)"/>
<path d="M0 0 C0.33 0 0.66 0 1 0 C1.33 2.31 1.66 4.62 2 7 C1.01 7.495 1.01 7.495 0 8 C0 7.34 0 6.68 0 6 C-1.65 7.32 -3.3 8.64 -5 10 C-5.66 9.67 -6.32 9.34 -7 9 C-5.85793642 7.49712782 -4.71125043 5.99776716 -3.5625 4.5 C-2.92441406 3.6646875 -2.28632813 2.829375 -1.62890625 1.96875 C-0.82259766 0.99421875 -0.82259766 0.99421875 0 0 Z " fill="#3FA5E4" transform="translate(212,103)"/>
<path d="M0 0 C0.33 1.32 0.66 2.64 1 4 C-0.3125 5.75 -0.3125 5.75 -2 7 C-2.66 7 -3.32 7 -4 7 C-4.33 8.32 -4.66 9.64 -5 11 C-6.32 10.67 -7.64 10.34 -9 10 C-6.03 6.7 -3.06 3.4 0 0 Z " fill="#52ABDF" transform="translate(242,67)"/>
<path d="M0 0 C1.65 0 3.3 0 5 0 C5 0.66 5 1.32 5 2 C3.40233897 2.86627399 1.79660056 3.71766465 0.1875 4.5625 C-0.70582031 5.03816406 -1.59914062 5.51382812 -2.51953125 6.00390625 C-5 7 -5 7 -8 6 C-5.61426621 4.10786631 -3.92824652 2.97608217 -1 2 C-0.67 1.34 -0.34 0.68 0 0 Z " fill="#51ADE2" transform="translate(236,355)"/>
<path d="M0 0 C0.45375 0.66 0.9075 1.32 1.375 2 C1.91125 2.66 2.4475 3.32 3 4 C3.66 4 4.32 4 5 4 C5 7.63 5 11.26 5 15 C3.25050228 12.37575342 2.34610019 10.44272784 1.375 7.5 C0.98441406 6.33984375 0.98441406 6.33984375 0.5859375 5.15625 C0 3 0 3 0 0 Z " fill="#4AA9E5" transform="translate(122,350)"/>
<path d="M0 0 C1.20220203 3.53094302 0.79532349 6.12898982 0.0625 9.75 C-0.13214844 10.73484375 -0.32679688 11.7196875 -0.52734375 12.734375 C-0.68332031 13.48203125 -0.83929688 14.2296875 -1 15 C-1.99 14.01 -2.98 13.02 -4 12 C-3.52309796 10.37433394 -3.04340334 8.74948689 -2.5625 7.125 C-2.29566406 6.22007812 -2.02882812 5.31515625 -1.75390625 4.3828125 C-1 2 -1 2 0 0 Z " fill="#45ABE8" transform="translate(135,227)"/>
<path d="M0 0 C2.23063517 2.97418022 4.27615616 5.7246967 6 9 C5.67 9.66 5.34 10.32 5 11 C3.35 10.67 1.7 10.34 0 10 C0 6.7 0 3.4 0 0 Z " fill="#43A8E9" transform="translate(177,353)"/>
<path d="M0 0 C0.33 0 0.66 0 1 0 C1 2.64 1 5.28 1 8 C0.01 8.33 -0.98 8.66 -2 9 C-2.33 9.66 -2.66 10.32 -3 11 C-3.66 11 -4.32 11 -5 11 C-3.55049545 7.2089881 -1.84827434 3.6125362 0 0 Z " fill="#48A8E4" transform="translate(154,187)"/>
<path d="M0 0 C1.70884005 1.62339805 3.37446717 3.29319053 5 5 C5 5.66 5 6.32 5 7 C5.66 7 6.32 7 7 7 C6.34 8.98 5.68 10.96 5 13 C4.34 12.67 3.68 12.34 3 12 C2.40644386 9.35139573 2.25790731 6.70802678 2 4 C1.34 4 0.68 4 0 4 C0 2.68 0 1.36 0 0 Z " fill="#47A8E9" transform="translate(296,114)"/>
<path d="M0 0 C0.99 0.33 1.98 0.66 3 1 C2.04956626 2.33897583 1.08940853 3.67105427 0.125 5 C-0.40867188 5.7425 -0.94234375 6.485 -1.4921875 7.25 C-1.98976562 7.8275 -2.48734375 8.405 -3 9 C-3.66 9 -4.32 9 -5 9 C-5.33 9.66 -5.66 10.32 -6 11 C-6 10.01 -6 9.02 -6 8 C-5.34 8 -4.68 8 -4 8 C-4.33 6.02 -4.66 4.04 -5 2 C-4.360625 1.855625 -3.72125 1.71125 -3.0625 1.5625 C-1.02454854 1.18992819 -1.02454854 1.18992819 0 0 Z " fill="#52ABE6" transform="translate(246,120)"/>
<path d="M0 0 C0.66 0 1.32 0 2 0 C1.57316761 1.58624235 1.13303842 3.1689098 0.6875 4.75 C0.44386719 5.63171875 0.20023438 6.5134375 -0.05078125 7.421875 C-1.02125331 10.05772505 -2.21005644 11.85407326 -4 14 C-3.67 11.03 -3.34 8.06 -3 5 C-2.34 5 -1.68 5 -1 5 C-0.67 3.35 -0.34 1.7 0 0 Z " fill="#61B1E1" transform="translate(248,235)"/>
<path d="M0 0 C0.75 1.75 0.75 1.75 1 4 C-0.625 6.25 -0.625 6.25 -3 8 C-5.75 8.25 -5.75 8.25 -8 8 C-5.33333333 5.33333333 -2.66666667 2.66666667 0 0 Z " fill="#5AB0E6" transform="translate(342,377)"/>
<path d="M0 0 C1.08667969 0.02707031 2.17335938 0.05414063 3.29296875 0.08203125 C4.54013672 0.13423828 4.54013672 0.13423828 5.8125 0.1875 C2.54636305 2.10052307 -0.18195248 2.54424661 -3.9375 2.8125 C-4.92234375 2.88726562 -5.9071875 2.96203125 -6.921875 3.0390625 C-7.66953125 3.08804687 -8.4171875 3.13703125 -9.1875 3.1875 C-6.54246503 -0.34849411 -4.24021315 -0.13678107 0 0 Z " fill="#4BABE7" transform="translate(279.1875,434.8125)"/>
<path d="M0 0 C-0.33 1.65 -0.66 3.3 -1 5 C-1.66 5 -2.32 5 -3 5 C-3 4.34 -3 3.68 -3 3 C-3.66 3 -4.32 3 -5 3 C-5.33 3.99 -5.66 4.98 -6 6 C-6.33 4.68 -6.66 3.36 -7 2 C-4 0 -4 0 0 0 Z " fill="#259BEA" transform="translate(352,306)"/>
<path d="M0 0 C2.10814567 4.21629134 2.17700355 6.39790775 2 11 C0.68 11.33 -0.64 11.66 -2 12 C-1.34 8.04 -0.68 4.08 0 0 Z " fill="#57B2E7" transform="translate(367,250)"/>
<path d="M0 0 C1.37095624 3.69037278 0.60010967 5.70883835 -0.9375 9.25 C-1.31777344 10.14203125 -1.69804687 11.0340625 -2.08984375 11.953125 C-2.39019531 12.62859375 -2.69054687 13.3040625 -3 14 C-3.66 13.67 -4.32 13.34 -5 13 C-4.54554036 11.58208592 -4.08625056 10.16571954 -3.625 8.75 C-3.24214844 7.56664062 -3.24214844 7.56664062 -2.8515625 6.359375 C-2.04826333 4.13372042 -1.10288338 2.09068328 0 0 Z " fill="#52AFDF" transform="translate(209,203)"/>
<path d="M0 0 C2.99324263 1.0975223 3.84610901 1.67682892 5.25 4.625 C5.4975 5.40875 5.745 6.1925 6 7 C5.38125 6.79375 4.7625 6.5875 4.125 6.375 C3.42375 6.25125 2.7225 6.1275 2 6 C1.34 6.66 0.68 7.32 0 8 C0 5.36 0 2.72 0 0 Z " fill="#71B5E0" transform="translate(317,144)"/>
<path d="M0 0 C2.3431213 0.25561323 4.67843403 0.59270772 7 1 C7.33 1.66 7.66 2.32 8 3 C10.01669827 4.13350534 10.01669827 4.13350534 12 5 C12 5.66 12 6.32 12 7 C7.69235185 5.43358249 3.93828536 3.31663844 0 1 C0 0.67 0 0.34 0 0 Z " fill="#52AEE1" transform="translate(169,416)"/>
<path d="M0 0 C0.99 0.33 1.98 0.66 3 1 C3 2.32 3 3.64 3 5 C3.99 5.33 4.98 5.66 6 6 C6 6.99 6 7.98 6 9 C6.66 9.33 7.32 9.66 8 10 C7.34 10.66 6.68 11.32 6 12 C4.99466333 10.37829621 3.99588093 8.75252763 3 7.125 C2.443125 6.22007812 1.88625 5.31515625 1.3125 4.3828125 C0 2 0 2 0 0 Z " fill="#54AAE2" transform="translate(132,375)"/>
<path d="M0 0 C0.66 0.66 1.32 1.32 2 2 C1.9765625 4.8203125 1.9765625 4.8203125 1.625 8.125 C1.51414062 9.22070312 1.40328125 10.31640625 1.2890625 11.4453125 C1.19367188 12.28835938 1.09828125 13.13140625 1 14 C0.67 14 0.34 14 0 14 C-0.19532961 12.2300132 -0.38098882 10.45895721 -0.5625 8.6875 C-0.66691406 7.70136719 -0.77132812 6.71523438 -0.87890625 5.69921875 C-1 3 -1 3 0 0 Z " fill="#42A6E7" transform="translate(119,328)"/>
<path d="M0 0 C0.33 0.66 0.66 1.32 1 2 C-0.3125 4 -0.3125 4 -2 6 C-2.99 6 -3.98 6 -5 6 C-5 6.66 -5 7.32 -5 8 C-5.99 7.67 -6.98 7.34 -8 7 C-6.6875 5 -6.6875 5 -5 3 C-4.01 3 -3.02 3 -2 3 C-2 2.34 -2 1.68 -2 1 C-1.34 0.67 -0.68 0.34 0 0 Z " fill="#35A0E4" transform="translate(340,320)"/>
<path d="M0 0 C1.31223496 3.93670488 0.24296256 6.12488144 -1 10 C-1.99 9.67 -2.98 9.34 -4 9 C-4 4.59461858 -2.86610581 3.31393484 0 0 Z " fill="#49AAE8" transform="translate(277,251)"/>
<path d="M0 0 C0.66 0.66 1.32 1.32 2 2 C1.828125 4.05859375 1.828125 4.05859375 1.25 6.4375 C0.97929687 7.61119141 0.97929687 7.61119141 0.703125 8.80859375 C0 11 0 11 -2 14 C-2.21192221 8.80790596 -1.5912689 4.873261 0 0 Z " fill="#3A9DE1" transform="translate(193,243)"/>
<path d="M0 0 C3 3 3 3 3.29296875 5.04296875 C3.1953125 7.02864583 3.09765625 9.01432292 3 11 C2.34 9.68 1.68 8.36 1 7 C0.34 7.99 -0.32 8.98 -1 10 C-0.67 6.7 -0.34 3.4 0 0 Z " fill="#78B6D8" transform="translate(369,240)"/>
<path d="M0 0 C0.33 0.66 0.66 1.32 1 2 C0.00390625 4.3828125 0.00390625 4.3828125 -1.4375 7.125 C-1.91058594 8.03507813 -2.38367188 8.94515625 -2.87109375 9.8828125 C-3.24363281 10.58148438 -3.61617187 11.28015625 -4 12 C-4.33 12 -4.66 12 -5 12 C-5 10.02 -5 8.04 -5 6 C-4.01 5.67 -3.02 5.34 -2 5 C-2 3.68 -2 2.36 -2 1 C-1.34 0.67 -0.68 0.34 0 0 Z " fill="#62B4E5" transform="translate(194,203)"/>
<path d="M0 0 C0.66 1.32 1.32 2.64 2 4 C0.02 6.97 -1.96 9.94 -4 13 C-4.33 11.68 -4.66 10.36 -5 9 C-4.34 9 -3.68 9 -3 9 C-2.67 7.35 -2.34 5.7 -2 4 C-1.34 4 -0.68 4 0 4 C0 2.68 0 1.36 0 0 Z " fill="#67B6E7" transform="translate(230,140)"/>
<path d="M0 0 C0.66 0.99 1.32 1.98 2 3 C1.01 3.33 0.02 3.66 -1 4 C-2.21869929 6.50447516 -2.21869929 6.50447516 -3 9 C-3.99 9 -4.98 9 -6 9 C-5.67 8.01 -5.34 7.02 -5 6 C-4.34 6 -3.68 6 -3 6 C-2.87625 5.38125 -2.7525 4.7625 -2.625 4.125 C-2 2 -2 2 0 0 Z " fill="#2B9BE3" transform="translate(324,336)"/>
<path d="M0 0 C0.66 0.99 1.32 1.98 2 3 C1.125 5.6875 1.125 5.6875 0 8 C-0.66 8 -1.32 8 -2 8 C-2 8.66 -2 9.32 -2 10 C-2.66 10 -3.32 10 -4 10 C-2.8905928 6.51329166 -1.73662334 3.22515763 0 0 Z " fill="#59B1E6" transform="translate(283,324)"/>
<path d="M0 0 C1.37432457 3.81756824 0.67975039 7.07255329 0 11 C-0.99 11 -1.98 11 -3 11 C-3.75 8.875 -3.75 8.875 -4 6 C-2.0625 2.6875 -2.0625 2.6875 0 0 Z " fill="#3AA2E7" transform="translate(168,164)"/>
<path d="M0 0 C0.66 0 1.32 0 2 0 C0.55049545 3.7910119 -1.15172566 7.3874638 -3 11 C-3.33 11 -3.66 11 -4 11 C-4 9.02 -4 7.04 -4 5 C-3.34 5 -2.68 5 -2 5 C-1.34 3.35 -0.68 1.7 0 0 Z " fill="#60B0E1" transform="translate(289,154)"/>
<path d="M0 0 C1 2 1 2 0.25 4.9375 C-0.89726872 7.74830836 -1.69701628 9.1157406 -4 11 C-4.99 10.67 -5.98 10.34 -7 10 C-3.535 5.05 -3.535 5.05 0 0 Z " fill="#57ADE4" transform="translate(247,139)"/>
<path d="M0 0 C-1.98 2.31 -3.96 4.62 -6 7 C-7 3 -7 3 -6 0 C-3 -1 -3 -1 0 0 Z " fill="#47A7E4" transform="translate(260,107)"/>
<path d="M0 0 C0.8125 1.6875 0.8125 1.6875 1 4 C-1.3125 6.75 -1.3125 6.75 -4 9 C-4.66 9 -5.32 9 -6 9 C-4.47291037 5.56404834 -2.40072955 2.88087546 0 0 Z " fill="#59ADE0" transform="translate(228,83)"/>
<path d="M0 0 C2.97 0.495 2.97 0.495 6 1 C4.02 3.31 2.04 5.62 0 8 C-0.33 7.01 -0.66 6.02 -1 5 C-0.34 5 0.32 5 1 5 C0.67 3.35 0.34 1.7 0 0 Z " fill="#45A9E8" transform="translate(338,357)"/>
<path d="M0 0 C0.99 0.33 1.98 0.66 3 1 C3 2.65 3 4.3 3 6 C0.69 6 -1.62 6 -4 6 C-4 5.34 -4 4.68 -4 4 C-3.01 4 -2.02 4 -1 4 C-0.67 2.68 -0.34 1.36 0 0 Z " fill="#1195ED" transform="translate(203,353)"/>
<path d="M0 0 C0.66 0 1.32 0 2 0 C1.33989524 2.84550012 0.48275034 5.52325999 -0.5625 8.25 C-0.83191406 8.95640625 -1.10132813 9.6628125 -1.37890625 10.390625 C-1.68634766 11.18726563 -1.68634766 11.18726563 -2 12 C-2.33 12 -2.66 12 -3 12 C-2.14285714 3.42857143 -2.14285714 3.42857143 0 0 Z " fill="#50ACE3" transform="translate(364,320)"/>
<path d="M0 0 C2.30142435 1.78174788 3.80034391 3.16304165 4.48828125 6.046875 C4.72323102 8.0246611 4.86751458 10.01271872 5 12 C4.34 12 3.68 12 3 12 C2.49166409 10.75336669 1.99368855 9.50250613 1.5 8.25 C1.2215625 7.55390625 0.943125 6.8578125 0.65625 6.140625 C0 4 0 4 0 0 Z " fill="#2D9CE0" transform="translate(332,177)"/>
<path d="M0 0 C1.32 0 2.64 0 4 0 C4 0.66 4 1.32 4 2 C4.66 2 5.32 2 6 2 C6.33 2.99 6.66 3.98 7 5 C6.01 5.495 6.01 5.495 5 6 C4.67 5.34 4.34 4.68 4 4 C2.02 4 0.04 4 -2 4 C-1.34 2.68 -0.68 1.36 0 0 Z " fill="#67AFDB" transform="translate(280,97)"/>
<path d="M0 0 C0.33 1.32 0.66 2.64 1 4 C0.34 4 -0.32 4 -1 4 C-1 4.99 -1 5.98 -1 7 C-2.65 7.66 -4.3 8.32 -6 9 C-4.47291037 5.56404834 -2.40072955 2.88087546 0 0 Z " fill="#66B5E6" transform="translate(250,375)"/>
<path d="M0 0 C0.66 0 1.32 0 2 0 C1.54965877 1.62723299 1.08944646 3.25173664 0.625 4.875 C0.36976563 5.77992188 0.11453125 6.68484375 -0.1484375 7.6171875 C-1 10 -1 10 -3 12 C-2.14285714 3.42857143 -2.14285714 3.42857143 0 0 Z " fill="#5CAEE0" transform="translate(242,249)"/>
<path d="M0 0 C0.99 0.33 1.98 0.66 3 1 C2.34 1 1.68 1 1 1 C1.0928125 2.60875 1.0928125 2.60875 1.1875 4.25 C0.99456691 8.10866187 0.60334924 9.28817788 -2 12 C-2.33 10.68 -2.66 9.36 -3 8 C-2.34 8 -1.68 8 -1 8 C-0.67 5.36 -0.34 2.72 0 0 Z " fill="#329FE3" transform="translate(268,188)"/>
<path d="M0 0 C1 3 1 3 0.22265625 4.82421875 C-0.8515625 6.54947917 -1.92578125 8.27473958 -3 10 C-3.33 10 -3.66 10 -4 10 C-3.67 7.69 -3.34 5.38 -3 3 C-2.34 3 -1.68 3 -1 3 C-0.67 2.01 -0.34 1.02 0 0 Z " fill="#45A4DD" transform="translate(224,150)"/>
<path d="M0 0 C3.3 1.98 6.6 3.96 10 6 C6 7 6 7 3.3125 5.8125 C1 4 1 4 0 0 Z " fill="#76BCE7" transform="translate(207,388)"/>
<path d="M0 0 C0.33 0.99 0.66 1.98 1 3 C-0.4375 5.6875 -0.4375 5.6875 -2 8 C-3.32 7.67 -4.64 7.34 -6 7 C-4.02 4.69 -2.04 2.38 0 0 Z " fill="#5BB2E4" transform="translate(355,363)"/>
<path d="M0 0 C0.33 0 0.66 0 1 0 C0.43393721 4.69023454 -0.18537505 9.34500026 -1 14 C-1.33 14 -1.66 14 -2 14 C-2.05437607 12.41705218 -2.09296271 10.83355744 -2.125 9.25 C-2.14820313 8.36828125 -2.17140625 7.4865625 -2.1953125 6.578125 C-1.99139502 3.8864142 -1.36551721 2.30095026 0 0 Z " fill="#65B7E5" transform="translate(371,296)"/>
<path d="M0 0 C0.66 0.33 1.32 0.66 2 1 C2.625 4.0625 2.625 4.0625 3 7 C1.68 7.33 0.36 7.66 -1 8 C-1.04241723 5.66705225 -1.04092937 3.33297433 -1 1 C-0.67 0.67 -0.34 0.34 0 0 Z " fill="#0891EC" transform="translate(319,149)"/>
<path d="M0 0 C1.32 1.32 2.64 2.64 4 4 C2.75023244 7.65316671 2.32901247 8.78065836 -1 11 C-1 10.01 -1 9.02 -1 8 C-0.34 8 0.32 8 1 8 C1.08226668 4.95613276 0.97608217 2.92824652 0 0 Z " fill="#7CC0E7" transform="translate(271,83)"/>
<path d="M0 0 C-5.625 4 -5.625 4 -9 4 C-9.33 3.01 -9.66 2.02 -10 1 C-3.375 -1.125 -3.375 -1.125 0 0 Z " fill="#45A3E1" transform="translate(325,420)"/>
<path d="M0 0 C0.33 1.32 0.66 2.64 1 4 C-1.97 4.66 -4.94 5.32 -8 6 C-5.37886292 3.37886292 -3.17772443 1.80357333 0 0 Z " fill="#55AEE1" transform="translate(333,385)"/>
<path d="M0 0 C0.33 0 0.66 0 1 0 C1.17835515 4.54805635 0.99785435 7.8794254 -1 12 C-1.66 12 -2.32 12 -3 12 C-2.01 8.04 -1.02 4.08 0 0 Z " fill="#5BB3E2" transform="translate(130,239)"/>
<path d="M0 0 C0.33 0 0.66 0 1 0 C1.33 3.3 1.66 6.6 2 10 C1.34 10 0.68 10 0 10 C0 9.34 0 8.68 0 8 C-0.66 8 -1.32 8 -2 8 C-1.47731534 5.23723823 -0.89130413 2.6739124 0 0 Z " fill="#4EB0E8" transform="translate(309,187)"/>
<path d="M0 0 C3.82097239 0.53069061 6.06171403 1.49701566 9 4 C7.3125 4.8125 7.3125 4.8125 5 5 C2.25 2.5625 2.25 2.5625 0 0 Z " fill="#57B1E6" transform="translate(161,410)"/>
<path d="M0 0 C1.66905241 3.33810482 2.8741386 6.46157845 4 10 C2.68 9.67 1.36 9.34 0 9 C0 6.03 0 3.06 0 0 Z " fill="#51AEE8" transform="translate(173,343)"/>
<path d="M0 0 C0.33 0.66 0.66 1.32 1 2 C0.06553465 4.03144641 -0.93224776 6.03533587 -2 8 C-3.32 7.67 -4.64 7.34 -6 7 C-4.02 4.69 -2.04 2.38 0 0 Z " fill="#50AEE2" transform="translate(331,328)"/>
<path d="M0 0 C0.33 0 0.66 0 1 0 C0.67 3.3 0.34 6.6 0 10 C-0.99 10 -1.98 10 -3 10 C-2.01 6.7 -1.02 3.4 0 0 Z " fill="#62B5E6" transform="translate(361,274)"/>
<path d="M0 0 C0.66 0.33 1.32 0.66 2 1 C2.59355614 3.64860427 2.74209269 6.29197322 3 9 C2.67 8.01 2.34 7.02 2 6 C1.34 6 0.68 6 0 6 C-0.33 6.66 -0.66 7.32 -1 8 C-0.67 5.36 -0.34 2.72 0 0 Z " fill="#1F89D1" transform="translate(369,246)"/>
<path d="M0 0 C0.33 1.32 0.66 2.64 1 4 C0.34 4 -0.32 4 -1 4 C-1.33 5.65 -1.66 7.3 -2 9 C-2.33 9 -2.66 9 -3 9 C-3.1875 5.625 -3.1875 5.625 -3 2 C-2.01 1.34 -1.02 0.68 0 0 Z " fill="#118FE8" transform="translate(254,219)"/>
<path d="M0 0 C0.66 0.33 1.32 0.66 2 1 C0.68 3.64 -0.64 6.28 -2 9 C-3.20547945 4.17808219 -3.20547945 4.17808219 -2 1 C-1.34 0.67 -0.68 0.34 0 0 Z " fill="#56AFE4" transform="translate(279,172)"/>
<path d="M0 0 C0.66 0 1.32 0 2 0 C1.60196439 2.88575819 1.20990931 3.82189513 -1.0625 5.75 C-1.701875 6.1625 -2.34125 6.575 -3 7 C-3 5.35 -3 3.7 -3 2 C-2.01 2 -1.02 2 0 2 C0 1.34 0 0.68 0 0 Z " fill="#3DA1E1" transform="translate(268,92)"/>
<path d="M0 0 C0.66 0 1.32 0 2 0 C1.1875 1.9375 1.1875 1.9375 0 4 C-0.99 4.33 -1.98 4.66 -3 5 C-3.33 5.66 -3.66 6.32 -4 7 C-4 5.35 -4 3.7 -4 2 C-2.68 2 -1.36 2 0 2 C0 1.34 0 0.68 0 0 Z " fill="#49A8E1" transform="translate(272,329)"/>
<path d="M0 0 C0.33 0 0.66 0 1 0 C1 2.64 1 5.28 1 8 C0.01 8.33 -0.98 8.66 -2 9 C-1.34 6.03 -0.68 3.06 0 0 Z " fill="#55B0E6" transform="translate(364,265)"/>
<path d="M0 0 C0.68707555 2.49064888 1 4.37886292 1 7 C-0.65 7.66 -2.3 8.32 -4 9 C-2.94124926 5.59687262 -1.99097846 2.98646769 0 0 Z " fill="#6BBAE7" transform="translate(216,189)"/>
<path d="M0 0 C2 1.375 2 1.375 4 3 C4 3.66 4 4.32 4 5 C4.66 5 5.32 5 6 5 C5.67 5.66 5.34 6.32 5 7 C3.68 6.67 2.36 6.34 1 6 C0.67 4.02 0.34 2.04 0 0 Z " fill="#6AB8E7" transform="translate(190,373)"/>
<path d="M0 0 C0 0.99 0 1.98 0 3 C-0.66 3.66 -1.32 4.32 -2 5 C-4.125 4.625 -4.125 4.625 -6 4 C-4.60804085 1.2160817 -2.84424221 1.02101003 0 0 Z " fill="#309DEA" transform="translate(258,279)"/>
</svg>
